<svg width="415" height="896" viewBox="0 0 415 896" fill="none" xmlns="http://www.w3.org/2000/svg">
<g clip-path="url(#clip0)">
<rect width="414" height="896" transform="translate(0.397705)" fill="#03174C"/>
<path opacity="0.3" d="M286.26 -7.64454C375.07 83.2155 444.02 193.385 486.92 312.975C489.08 318.985 491.2 325.305 490.32 331.625C489.44 337.945 484.56 344.195 478.17 344.375C472.56 344.525 467.94 340.245 464 336.245C452.02 324.085 440.03 311.935 428.05 299.775C419.23 290.835 406.63 281.165 395.45 286.885C388.1 290.655 385.14 300.045 386.34 308.215C387.54 316.385 391.99 323.655 396.27 330.715C396.27 330.715 532.49 601.435 551.18 700.625C535.3 598.825 503.62 504.045 458.49 411.425C454.87 404.005 450.41 392.055 449.96 383.805C449.51 375.555 453.31 366.465 460.97 363.385C472.62 358.695 484.3 369.475 492.26 379.185C503.09 392.385 513.92 405.575 524.75 418.775C528.31 423.115 532.52 427.805 538.12 428.155C544.49 428.565 549.92 422.785 551.37 416.565C552.82 410.345 551.28 403.865 549.68 397.685C517.83 274.685 435.23 107.665 333.23 1.66546L286.26 -7.64454Z" fill="#554872"/>
<path opacity="0.3" d="M-53.9497 456.205C34.8603 547.065 103.81 657.235 146.71 776.825C148.87 782.835 150.99 789.155 150.11 795.475C149.23 801.795 144.35 808.045 137.96 808.225C132.35 808.375 127.73 804.095 123.79 800.095C111.81 787.935 99.8203 775.785 87.8403 763.625C79.0203 754.685 66.4203 745.015 55.2403 750.735C47.8903 754.505 44.9303 763.895 46.1303 772.065C47.3303 780.235 51.7803 787.505 56.0603 794.565C56.0603 794.565 192.28 1065.29 210.97 1164.48C195.09 1062.68 163.41 967.895 118.28 875.275C114.66 867.855 110.2 855.905 109.75 847.655C109.3 839.405 113.1 830.315 120.76 827.235C132.41 822.545 144.09 833.325 152.05 843.035C162.88 856.235 173.71 869.425 184.54 882.625C188.1 886.965 192.31 891.655 197.91 892.005C204.28 892.415 209.71 886.635 211.16 880.415C212.61 874.195 211.07 867.715 209.47 861.535C177.62 738.535 95.0203 571.515 -6.97971 465.515L-53.9497 456.205Z" fill="#554872"/>
<path opacity="0.3" d="M-34.4397 336.425C-0.479729 337.435 -30.6597 546.425 -20.5197 514.005C7.48032 424.505 92.7003 437.745 151.48 499.005C186.98 536.005 246.44 639.885 275.49 673.515C282.38 681.495 290.66 689.505 301.14 690.735C314.33 692.285 326.63 682.045 331.87 669.835C340.93 648.735 337.51 620.285 334.91 598.155C330.93 564.195 321.73 531.075 312.03 498.375C297.4 449.105 277.56 401.425 253.88 355.845C253.66 355.425 253.45 355.015 253.23 354.605C223.61 297.825 187.13 244.605 144.63 196.695C128.18 178.155 109.31 161.905 88.6003 148.295C184.76 245.825 261.01 384.895 301.98 537.485C305.14 549.265 308.14 561.405 308.22 573.465C308.3 585.525 304.96 597.675 297.75 603.095C289.56 609.255 276.98 607.005 269.7 597.055C262.67 587.445 254.64 576.895 248.2 565.395C215.9 507.675 180.13 453.505 141.51 403.805C124.06 381.345 105.83 359.605 85.3403 343.635C64.8503 327.675 41.7603 317.745 19.9703 320.655L-34.4397 336.425Z" fill="#554872"/>
<path opacity="0.3" d="M52.5703 -45.6545C54.2103 -45.6845 167.98 124.625 238.88 296.655C197.24 224.345 134.57 127.675 0.0503512 18.1455C0.160352 18.2355 16.5803 -0.534548 18.0903 -2.24455C23.4603 -8.31455 48.9803 -45.5845 52.5703 -45.6545Z" fill="#554872"/>
<path opacity="0.4" d="M359.92 354.515C359.92 355.482 360.704 356.265 361.67 356.265C362.637 356.265 363.42 355.482 363.42 354.515C363.42 353.549 362.637 352.765 361.67 352.765C360.704 352.765 359.92 353.549 359.92 354.515Z" fill="white"/>
<path opacity="0.4" d="M93.4903 363.765C93.4903 364.732 94.2738 365.515 95.2403 365.515C96.2068 365.515 96.9903 364.732 96.9903 363.765C96.9903 362.799 96.2068 362.015 95.2403 362.015C94.2738 362.015 93.4903 362.799 93.4903 363.765Z" fill="white"/>
<path opacity="0.4" d="M131.23 532.395C131.23 533.362 132.014 534.145 132.98 534.145C133.947 534.145 134.73 533.362 134.73 532.395C134.73 531.429 133.947 530.645 132.98 530.645C132.014 530.645 131.23 531.429 131.23 532.395Z" fill="white"/>
<path opacity="0.4" d="M78.4103 598.195C78.4103 599.162 79.1938 599.945 80.1603 599.945C81.1268 599.945 81.9103 599.162 81.9103 598.195C81.9103 597.229 81.1268 596.445 80.1603 596.445C79.1938 596.445 78.4103 597.229 78.4103 598.195Z" fill="white"/>
<path opacity="0.4" d="M412.13 588.895C412.13 589.862 412.914 590.645 413.88 590.645C414.847 590.645 415.63 589.862 415.63 588.895C415.63 587.929 414.847 587.145 413.88 587.145C412.914 587.145 412.13 587.929 412.13 588.895Z" fill="white"/>
<path opacity="0.4" d="M185.8 702.045C185.8 703.012 186.584 703.795 187.55 703.795C188.517 703.795 189.3 703.012 189.3 702.045C189.3 701.079 188.517 700.295 187.55 700.295C186.584 700.295 185.8 701.079 185.8 702.045Z" fill="white"/>
<path opacity="0.4" d="M206.74 481.015C206.74 481.982 207.524 482.765 208.49 482.765C209.457 482.765 210.24 481.982 210.24 481.015C210.24 480.049 209.457 479.265 208.49 479.265C207.524 479.265 206.74 480.049 206.74 481.015Z" fill="white"/>
<path opacity="0.4" d="M195.49 397.675C195.49 398.642 196.274 399.425 197.24 399.425C198.207 399.425 198.99 398.642 198.99 397.675C198.99 396.709 198.207 395.925 197.24 395.925C196.274 395.925 195.49 396.709 195.49 397.675Z" fill="white"/>
<path opacity="0.4" d="M85.7403 197.015C85.7403 197.982 86.5238 198.765 87.4903 198.765C88.4568 198.765 89.2403 197.982 89.2403 197.015C89.2403 196.049 88.4568 195.265 87.4903 195.265C86.5238 195.265 85.7403 196.049 85.7403 197.015Z" fill="white"/>
<path opacity="0.4" d="M390.34 295.675C390.34 296.642 391.124 297.425 392.09 297.425C393.057 297.425 393.84 296.642 393.84 295.675C393.84 294.709 393.057 293.925 392.09 293.925C391.124 293.925 390.34 294.709 390.34 295.675Z" fill="white"/>
<path opacity="0.4" d="M289.49 165.015C289.49 165.982 290.274 166.765 291.24 166.765C292.207 166.765 292.99 165.982 292.99 165.015C292.99 164.049 292.207 163.265 291.24 163.265C290.274 163.265 289.49 164.049 289.49 165.015Z" fill="white"/>
<path opacity="0.4" d="M222.49 176.265C222.49 177.232 223.274 178.015 224.24 178.015C225.207 178.015 225.99 177.232 225.99 176.265C225.99 175.299 225.207 174.515 224.24 174.515C223.274 174.515 222.49 175.299 222.49 176.265Z" fill="white"/>
<path opacity="0.7" d="M356.3 415.945L357.42 421.955L358.54 415.945L360.77 417.485L359.24 415.245L365.25 414.125L359.24 413.015L360.77 410.775L358.54 412.305L357.42 406.305L356.3 412.305L354.06 410.775L355.6 413.015L349.59 414.125L355.6 415.245L354.06 417.485L356.3 415.945Z" fill="#E1D1FF"/>
<path opacity="0.7" d="M205.75 729.995L206.86 735.995L207.98 729.995L210.22 731.525L208.68 729.285L214.69 728.175L208.68 727.055L210.22 724.815L207.98 726.355L206.86 720.345L205.75 726.355L203.51 724.815L205.04 727.055L199.04 728.175L205.04 729.285L203.51 731.525L205.75 729.995Z" fill="#E1D1FF"/>
<path opacity="0.7" d="M215.49 590.445L216.61 596.445L217.73 590.445L219.97 591.975L218.43 589.735L224.44 588.626L218.43 587.505L219.97 585.265L217.73 586.805L216.61 580.795L215.49 586.805L213.26 585.265L214.79 587.505L208.78 588.626L214.79 589.735L213.26 591.975L215.49 590.445Z" fill="#E1D1FF"/>
<path opacity="0.7" d="M341.44 706.056L342.56 712.065L343.68 706.056L345.91 707.585L344.38 705.355L350.39 704.236L344.38 703.116L345.91 700.876L343.68 702.415L342.56 696.405L341.44 702.415L339.2 700.876L340.74 703.116L334.73 704.236L340.74 705.355L339.2 707.585L341.44 706.056Z" fill="#E1D1FF"/>
<path opacity="0.7" d="M166.72 275.285L167.83 281.295L168.95 275.285L171.19 276.815L169.65 274.585L175.66 273.465L169.65 272.345L171.19 270.105L168.95 271.645L167.83 265.635L166.72 271.645L164.48 270.105L166.01 272.345L160 273.465L166.01 274.585L164.48 276.815L166.72 275.285Z" fill="#E1D1FF"/>
<path opacity="0.7" d="M122.24 323.015L123.36 329.025L124.47 323.015L126.71 324.545L125.18 322.305L131.18 321.195L125.18 320.075L126.71 317.835L124.47 319.375L123.36 313.365L122.24 319.375L120 317.835L121.54 320.075L115.53 321.195L121.54 322.305L120 324.545L122.24 323.015Z" fill="#E1D1FF"/>
<path opacity="0.7" d="M393.14 225.005L394.26 231.015L395.38 225.005L397.62 226.545L396.08 224.305L402.09 223.185L396.08 222.065L397.62 219.835L395.38 221.365L394.26 215.355L393.14 221.365L390.91 219.835L392.44 222.065L386.43 223.185L392.44 224.305L390.91 226.545L393.14 225.005Z" fill="#E1D1FF"/>
<path opacity="0.7" d="M388.33 91.0154L389.45 97.0254L390.57 91.0154L392.81 92.5454L391.27 90.3055L397.28 89.1955L391.27 88.0754L392.81 85.8355L390.57 87.3754L389.45 81.3654L388.33 87.3754L386.1 85.8355L387.63 88.0754L381.62 89.1955L387.63 90.3055L386.1 92.5454L388.33 91.0154Z" fill="#E1D1FF"/>
<path opacity="0.7" d="M82.7503 76.0254L83.8703 82.0354L84.9903 76.0254L87.2303 77.5554L85.6903 75.3254L91.7003 74.2054L85.6903 73.0854L87.2303 70.8454L84.9903 72.3854L83.8703 66.3754L82.7503 72.3854L80.5203 70.8454L82.0503 73.0854L76.0403 74.2054L82.0503 75.3254L80.5203 77.5554L82.7503 76.0254Z" fill="#E1D1FF"/>
<path d="M344.134 367.925C296.134 354.425 303.134 394.925 313.134 394.925C317.242 394.925 325.758 395.925 336.135 395.925H367.635C407.634 395.925 419.134 393.259 419.635 392.425C423.135 365.925 401.968 368.425 390.635 371.425C392.468 361.592 390.534 341.725 368.134 340.925C345.733 340.125 342.8 358.592 344.134 367.925Z" fill="#1F265E"/>
<path d="M10.1778 274.052C-8.5899 268.774 -5.85312 284.609 -1.94319 284.609C-0.336818 284.609 2.99302 285 7.05009 285H19.3666C35.0063 285 39.5028 283.957 39.6985 283.631C41.067 273.27 32.7909 274.248 28.3595 275.421C29.0764 271.576 28.3204 263.808 19.5618 263.495C10.8031 263.182 9.65635 270.403 10.1778 274.052Z" fill="#1F265E"/>
<path d="M219.289 100.715C182.8 90.4525 188.121 121.24 195.723 121.24C198.846 121.24 205.32 122 213.208 122H237.154C267.561 122 276.303 119.973 276.684 119.34C279.344 99.1947 263.254 101.095 254.638 103.376C256.032 95.9005 254.562 80.7981 237.533 80.19C220.505 79.5818 218.275 93.62 219.289 100.715Z" fill="#1F265E"/>
<path d="M371.487 62.0831C343.724 54.2745 347.773 77.7001 353.557 77.7001C355.933 77.7001 360.859 78.2785 366.86 78.2785H385.08C408.216 78.2785 414.868 76.7361 415.158 76.2541C417.182 60.9262 404.939 62.3723 398.384 64.1075C399.444 58.4198 398.326 46.9287 385.369 46.466C372.412 46.0033 370.716 56.6846 371.487 62.0831Z" fill="#1F265E"/>
<path d="M8.15343 83.5027C-12.874 77.6144 -9.8077 95.2791 -5.42699 95.2791C-3.6272 95.2791 0.103571 95.7153 4.64915 95.7153H18.4486C35.9715 95.7153 41.0094 94.5522 41.2287 94.1887C42.762 82.6303 33.4893 83.7208 28.5244 85.0292C29.3276 80.7403 28.4805 72.0752 18.6673 71.7263C8.85409 71.3773 7.56922 79.4318 8.15343 83.5027Z" fill="#1F265E"/>
<path d="M50.6662 74.3882C50.6662 74.3882 47.2856 67.9581 41.8689 71.2863C41.8689 71.2863 45.6608 66.0098 42.4111 62.1132C42.4111 62.1132 46.1937 66.4903 51.1822 64.7084C51.1822 64.7084 47.2594 67.4514 50.6662 74.3882Z" fill="#6D75B0"/>
<path d="M26.2284 49.3357C26.2284 49.3357 29.6326 46.0572 26.5706 43.2767C26.5706 43.2767 30.5551 44.6886 32.4001 41.9515C32.4001 41.9515 30.3515 45.1087 32.3697 47.9022C32.3697 47.9022 29.9444 45.9489 26.2284 49.3357Z" fill="white"/>
<g filter="url(#filter0_f)">
<circle cx="129.242" cy="64.1764" r="25.37" fill="#D3D4DE"/>
<circle cx="120.481" cy="52.472" r="4.65732" fill="#C5C6D0"/>
<circle cx="139.711" cy="63.9621" r="6.75236" fill="#F1F1F3"/>
<path fill-rule="evenodd" clip-rule="evenodd" d="M148.072 81.1791C145.072 84.4994 141.206 87.0224 136.831 88.3921C136.452 87.5487 136.241 86.6136 136.241 85.6292C136.241 81.9 139.264 78.8768 142.994 78.8768C145.018 78.8768 146.835 79.7678 148.072 81.1791Z" fill="#C5C6D0"/>
<circle cx="123.499" cy="80.1706" r="3.01873" fill="#C5C6D0"/>
</g>
<circle cx="131.967" cy="62.389" r="25.37" fill="#D3D4DE"/>
<circle cx="123.205" cy="50.6846" r="4.65732" fill="#C5C6D0"/>
<circle cx="142.435" cy="62.1748" r="6.75236" fill="#F1F1F3"/>
<path fill-rule="evenodd" clip-rule="evenodd" d="M150.797 79.3918C147.797 82.712 143.931 85.235 139.555 86.6047C139.176 85.7614 138.966 84.8262 138.966 83.8418C138.966 80.1126 141.989 77.0895 145.718 77.0895C147.743 77.0895 149.559 77.9805 150.797 79.3918Z" fill="#C5C6D0"/>
<circle cx="126.224" cy="78.3833" r="3.01873" fill="#C5C6D0"/>
<circle cx="149.188" cy="53.0135" r="25.37" fill="#03174C"/>
<path d="M314.02 42.2272C314.02 42.2272 315.392 49.3611 321.541 47.7456C321.541 47.7456 316.383 51.6967 318.364 56.3679C318.364 56.3679 316.012 51.0824 310.721 51.342C310.721 51.342 315.271 49.8537 314.02 42.2272Z" fill="#6D75B0"/>
<path d="M305.66 90.2059C305.66 90.2059 301.452 92.3572 303.577 95.9057C303.577 95.9057 300.172 93.3996 297.613 95.4846C297.613 95.4846 300.489 93.0566 299.367 89.7981C299.367 89.7981 301.122 92.3704 305.66 90.2059Z" fill="white"/>
<g filter="url(#filter1_f)">
<path d="M305.66 90.206C305.66 90.206 301.452 92.3572 303.577 95.9058C303.577 95.9058 300.172 93.3997 297.613 95.4847C297.613 95.4847 300.489 93.0566 299.367 89.7981C299.367 89.7981 301.122 92.3705 305.66 90.206Z" fill="white"/>
</g>
<path d="M357.636 111.452C357.636 111.452 353.428 113.603 355.553 117.152C355.553 117.152 352.148 114.646 349.589 116.73C349.589 116.73 352.465 114.302 351.343 111.044C351.343 111.044 353.098 113.616 357.636 111.452Z" fill="#6D75B0"/>
</g>
<defs>
<filter id="filter0_f" x="89.8725" y="24.8063" width="78.74" height="78.74" filterUnits="userSpaceOnUse" color-interpolation-filters="sRGB">
<feFlood flood-opacity="0" result="BackgroundImageFix"/>
<feBlend mode="normal" in="SourceGraphic" in2="BackgroundImageFix" result="shape"/>
<feGaussianBlur stdDeviation="7" result="effect1_foregroundBlur"/>
</filter>
<filter id="filter1_f" x="293.388" y="85.5464" width="16.4974" height="14.5979" filterUnits="userSpaceOnUse" color-interpolation-filters="sRGB">
<feFlood flood-opacity="0" result="BackgroundImageFix"/>
<feBlend mode="normal" in="SourceGraphic" in2="BackgroundImageFix" result="shape"/>
<feGaussianBlur stdDeviation="2" result="effect1_foregroundBlur"/>
</filter>
<clipPath id="clip0">
<rect width="414" height="896" fill="white" transform="translate(0.397705)"/>
</clipPath>
</defs>
</svg>
