<svg width="369" height="229" viewBox="0 0 369 229" fill="none" xmlns="http://www.w3.org/2000/svg">
<g clip-path="url(#clip0)">
<path d="M15.5554 154.114C24.9063 160.877 65.9751 166.781 110.955 170.922C110.943 170.995 110.939 171.071 110.939 171.144C98.0633 180.266 81.2607 186.738 64.2248 189.311C88.9337 189.311 111.514 180.758 132.755 172.769L132.674 172.761C132.401 172.741 132.123 172.717 131.849 172.693H131.853L132.674 172.761C154.458 174.463 176.121 175.725 194.622 176.451C194.871 176.459 195.12 176.471 195.37 176.479C175.779 189.803 145.783 202.828 124.973 209.224C124.873 209.256 124.816 209.349 124.84 209.446C124.86 209.526 124.933 209.587 125.017 209.595C125.033 209.595 125.05 209.595 125.062 209.595C150.539 206.591 188.864 192.989 210.032 177.012C236.962 177.923 263.586 178.467 287.249 178.782C270.917 192.969 249.306 207.18 233.16 215.604C233.067 215.652 233.031 215.757 233.071 215.846C233.107 215.922 233.188 215.967 233.272 215.959C233.288 215.959 233.304 215.954 233.316 215.95C253.487 209.752 280.827 194.888 299.666 178.927C333.621 179.29 359.766 179.201 369.004 179.153V149.937C252.956 166.462 131.298 171.753 15.5554 154.114Z" fill="#807BB0"/>
<path d="M5.59285 174.806C7.98287 172.882 10.1073 169.132 12.2197 166.914C14.3321 164.696 16.6054 162.559 19.3576 161.175C22.1097 159.792 25.4171 159.244 28.3141 160.292C31.2111 161.345 33.4965 164.236 33.2269 167.265C33.0016 169.817 31.1266 171.942 29.0504 173.491C22.4276 178.427 12.7428 178.967 5.59285 174.806Z" fill="#65D1CA"/>
<path d="M31.3197 162.292C31.3197 162.292 31.0702 162.53 30.6397 162.946C30.2011 163.365 29.5895 163.926 28.8009 164.579C28.0243 165.244 27.0707 165.958 26.0246 166.7C24.9704 167.43 23.8076 168.156 22.6166 168.829C21.4136 169.491 20.1823 170.1 18.9994 170.616C17.8124 171.12 16.6858 171.559 15.7001 171.878C14.7183 172.213 13.8854 172.447 13.302 172.6C12.7145 172.753 12.3806 172.838 12.3806 172.838C12.3806 172.838 12.7186 172.765 13.31 172.64C13.9015 172.511 14.7465 172.313 15.7443 172.023C16.7462 171.749 17.8969 171.354 19.1161 170.898C20.3312 170.43 21.5986 169.87 22.846 169.253C24.0852 168.624 25.2923 167.938 26.3988 167.244C27.4932 166.539 28.4991 165.849 29.3199 165.208C30.1488 164.583 30.8288 164.006 31.2794 163.615C31.7301 163.22 31.9916 162.99 31.9916 162.99C32.1928 162.817 32.2089 162.514 32.0318 162.317C31.8548 162.119 31.549 162.103 31.3478 162.28C31.3277 162.284 31.3237 162.288 31.3197 162.292Z" fill="#4AA5A2"/>
<path d="M28.7767 164.946C28.7767 164.946 28.817 165.486 28.7566 166.261C28.7043 167.047 28.5192 168.095 28.1893 169.108C27.8593 170.12 27.3966 171.088 26.9581 171.761C26.5275 172.443 26.1614 172.842 26.1614 172.842C26.1614 172.842 26.5477 172.463 27.0224 171.805C27.5053 171.152 28.0364 170.2 28.4307 169.192C28.825 168.18 29.0865 167.119 29.1871 166.305C29.2998 165.482 29.2877 164.946 29.2877 164.946V164.922C29.2837 164.781 29.167 164.668 29.0222 164.668C28.8773 164.672 28.7647 164.789 28.7647 164.93C28.7727 164.938 28.7727 164.942 28.7767 164.946Z" fill="#4AA5A2"/>
<path d="M22.8984 168.777C22.8984 168.777 22.8541 169.212 22.7173 169.833C22.5845 170.463 22.3431 171.293 22.0172 172.096C21.6913 172.894 21.2769 173.665 20.8826 174.185C20.4963 174.713 20.1543 174.999 20.1543 174.999C20.1543 174.999 20.5164 174.741 20.9469 174.237C21.3895 173.741 21.8683 172.995 22.2667 172.205C22.661 171.414 22.9788 170.584 23.1639 169.946C23.3571 169.301 23.4375 168.874 23.4375 168.874L23.4416 168.858C23.4697 168.708 23.3691 168.567 23.2203 168.543C23.0714 168.515 22.9265 168.616 22.8984 168.761C22.9024 168.765 22.9024 168.769 22.8984 168.777Z" fill="#4AA5A2"/>
<path d="M17.3698 171.305C17.3698 171.305 17.2732 171.604 17.0841 172.019C16.895 172.443 16.6013 172.987 16.2512 173.503C15.9012 174.019 15.4948 174.499 15.1487 174.818C14.8067 175.14 14.5412 175.318 14.5412 175.318C14.5412 175.318 14.8188 175.161 15.185 174.858C15.5551 174.56 15.9977 174.1 16.388 173.604C16.7783 173.104 17.1203 172.568 17.3416 172.144C17.571 171.721 17.6836 171.426 17.6836 171.426L17.6876 171.414C17.7239 171.33 17.6796 171.229 17.5911 171.196C17.5026 171.164 17.406 171.205 17.3698 171.293C17.3738 171.297 17.3698 171.301 17.3698 171.305Z" fill="#4AA5A2"/>
<path d="M29.0343 164.777C29.0343 164.777 28.5836 164.466 27.8151 164.095C27.0587 163.728 26.0045 163.357 24.9181 163.127C23.8317 162.897 22.7212 162.809 21.8924 162.841C21.0635 162.861 20.5203 162.966 20.5203 162.966C20.5203 162.966 21.0675 162.893 21.8924 162.922C22.7132 162.938 23.8036 163.091 24.8578 163.377C25.9079 163.664 26.9138 164.087 27.6139 164.482C28.31 164.865 28.7446 165.204 28.7446 165.204C28.8572 165.293 29.0222 165.273 29.1107 165.164C29.1992 165.051 29.1791 164.889 29.0664 164.805C29.0624 164.801 29.0584 164.801 29.0544 164.797L29.0343 164.777Z" fill="#4AA5A2"/>
<path d="M23.2846 168.575C23.2846 168.575 22.8782 168.398 22.2263 168.196C21.5826 167.991 20.7095 167.781 19.8243 167.66C18.9391 167.543 18.0378 167.515 17.3739 167.595C16.706 167.664 16.2875 167.813 16.2875 167.813C16.2875 167.813 16.718 167.696 17.3819 167.68C18.0418 167.652 18.923 167.745 19.776 167.926C20.633 168.111 21.4659 168.378 22.0694 168.624C22.6689 168.862 23.0592 169.067 23.0592 169.067C23.192 169.14 23.361 169.087 23.4334 168.954C23.5059 168.821 23.4535 168.656 23.3208 168.587C23.3167 168.583 23.3087 168.579 23.3006 168.579L23.2846 168.575Z" fill="#4AA5A2"/>
<path d="M17.579 171.205C17.579 171.205 17.2773 171.112 16.7944 171.019C16.3196 170.926 15.6799 170.85 15.0401 170.834C14.4004 170.821 13.7606 170.874 13.2899 170.967C12.8191 171.055 12.5214 171.172 12.5214 171.172C12.5214 171.172 12.8272 171.08 13.2979 171.019C13.7687 170.955 14.4004 170.946 15.0281 170.999C15.6557 171.055 16.2754 171.172 16.726 171.293C17.1767 171.41 17.4704 171.523 17.4704 171.523C17.5589 171.555 17.6555 171.515 17.6917 171.426C17.7239 171.342 17.6836 171.241 17.5951 171.209C17.5911 171.209 17.5871 171.205 17.583 171.205H17.579Z" fill="#4AA5A2"/>
<path d="M0.531177 129.374C3.84662 131.415 9.27445 132.395 12.8353 133.984C16.3962 135.572 19.9249 137.387 22.7253 140.069C25.5258 142.75 27.5416 146.432 27.437 150.275C27.3324 154.118 24.7412 157.99 20.9429 158.901C17.7441 159.671 14.3925 158.324 11.6645 156.506C2.96545 150.699 -1.63352 139.5 0.531177 129.374Z" fill="#65D1CA"/>
<path d="M26.1615 154.739C26.1615 154.739 25.7712 154.542 25.0912 154.195C24.4072 153.844 23.4697 153.344 22.3511 152.671C21.7878 152.344 21.1964 151.965 20.5727 151.562C19.945 151.162 19.3093 150.703 18.6414 150.239C17.3297 149.283 15.9737 148.202 14.6701 147.061C13.3826 145.904 12.1433 144.69 11.0368 143.5C10.4976 142.896 9.9625 142.319 9.49174 141.742C9.01293 141.17 8.56631 140.629 8.17602 140.109C7.37533 139.085 6.75569 138.194 6.33724 137.564C5.91878 136.935 5.67737 136.572 5.67737 136.572C5.67737 136.572 5.90671 136.939 6.30103 137.585C6.69936 138.23 7.29083 139.141 8.05531 140.194C8.42951 140.73 8.85601 141.287 9.31872 141.879C9.76937 142.476 10.2884 143.069 10.8075 143.698C11.8777 144.932 13.0808 146.198 14.3402 147.408C15.6156 148.606 16.9434 149.747 18.239 150.755C18.8989 151.247 19.5226 151.739 20.1462 152.162C20.7659 152.594 21.3533 153.001 21.9126 153.352C23.011 154.07 23.9847 154.63 24.6486 154.997C25.3165 155.364 25.6988 155.578 25.6988 155.578C25.9321 155.707 26.2259 155.627 26.3587 155.397C26.4914 155.167 26.4069 154.876 26.1736 154.747C26.1736 154.747 26.1655 154.743 26.1615 154.739Z" fill="#4AA5A2"/>
<path d="M21.981 152.772C21.981 152.772 21.3413 153.034 20.3635 153.276C19.3778 153.53 18.0218 153.723 16.6538 153.743C15.2858 153.76 13.9177 153.594 12.9159 153.348C12.4129 153.231 12.0065 153.102 11.7209 153.001C11.4392 152.897 11.2783 152.84 11.2783 152.84C11.2783 152.84 11.4352 152.905 11.7128 153.022C11.9904 153.134 12.3968 153.288 12.8957 153.425C13.8896 153.723 15.2616 153.953 16.6498 154.001C18.0379 154.05 19.4341 153.913 20.4601 153.699C20.9711 153.602 21.4097 153.481 21.6953 153.397C21.985 153.308 22.146 153.259 22.146 153.259L22.1581 153.255C22.2949 153.215 22.3713 153.07 22.3311 152.933C22.2868 152.796 22.142 152.723 22.0052 152.763C21.9971 152.767 21.9891 152.772 21.981 152.772Z" fill="#4AA5A2"/>
<path d="M14.9195 147.408C14.9195 147.408 14.3723 147.525 13.5555 147.614C12.7307 147.706 11.6202 147.751 10.5097 147.682C9.40317 147.61 8.29668 147.428 7.50403 147.166C7.1057 147.041 6.78381 146.908 6.56251 146.803C6.34524 146.694 6.2205 146.63 6.2205 146.63C6.2205 146.63 6.34121 146.698 6.55044 146.823C6.76369 146.94 7.07753 147.098 7.47184 147.247C8.25644 147.557 9.36293 147.811 10.4815 147.952C11.6041 148.09 12.7387 148.114 13.5877 148.069C14.4447 148.029 15 147.944 15 147.944L15.0161 147.94C15.165 147.916 15.2696 147.779 15.2454 147.63C15.2213 147.481 15.0805 147.38 14.9316 147.404C14.9276 147.404 14.9235 147.404 14.9195 147.408Z" fill="#4AA5A2"/>
<path d="M9.58029 141.883C9.58029 141.883 9.17793 141.887 8.59049 141.831C7.99902 141.779 7.21039 141.642 6.44189 141.436C5.67338 141.226 4.92499 140.936 4.3979 140.658C3.86678 140.383 3.54892 140.137 3.54892 140.137C3.54892 140.137 3.85471 140.399 4.37376 140.702C4.88878 141.012 5.62912 141.343 6.3936 141.597C7.16211 141.847 7.95476 142.025 8.5583 142.113C9.16586 142.206 9.56822 142.222 9.56822 142.222H9.58029C9.67283 142.226 9.7533 142.154 9.75733 142.061C9.76135 141.968 9.68893 141.892 9.59236 141.888C9.58834 141.883 9.58431 141.883 9.58029 141.883Z" fill="#4AA5A2"/>
<path d="M22.2024 152.929C22.2024 152.929 22.2426 152.763 22.315 152.473C22.3834 152.187 22.48 151.739 22.5404 151.227C22.6892 150.191 22.7174 148.799 22.5685 147.424C22.4116 146.049 22.0817 144.706 21.7115 143.738C21.5345 143.255 21.3574 142.859 21.2246 142.589C21.0878 142.319 21.0114 142.166 21.0114 142.166C21.0114 142.166 21.0798 142.323 21.2045 142.597C21.3212 142.871 21.4821 143.271 21.635 143.763C21.9529 144.739 22.2185 146.085 22.307 147.444C22.3915 148.803 22.2989 150.162 22.1058 151.158C22.0173 151.663 21.9167 152.054 21.8322 152.344C21.7477 152.63 21.6954 152.796 21.6954 152.796C21.6552 152.933 21.7316 153.074 21.8724 153.114C22.0092 153.155 22.1541 153.078 22.1983 152.941C22.2024 152.937 22.2024 152.933 22.2024 152.929Z" fill="#4AA5A2"/>
<path d="M15.2335 147.698C15.2335 147.698 15.2898 147.15 15.2777 146.303C15.2737 145.464 15.1812 144.351 14.98 143.259C14.7748 142.166 14.4529 141.093 14.0908 140.343C13.9177 139.964 13.7407 139.665 13.6079 139.46C13.4711 139.258 13.3907 139.145 13.3907 139.145C13.3907 139.145 13.4631 139.262 13.5838 139.472C13.7005 139.682 13.8574 139.992 14.0063 140.375C14.3161 141.141 14.5696 142.214 14.7023 143.299C14.8351 144.384 14.8552 145.481 14.811 146.295C14.7708 147.102 14.6822 147.65 14.6822 147.65C14.6581 147.799 14.7627 147.936 14.9116 147.961C15.0604 147.985 15.2053 147.884 15.2254 147.735C15.2254 147.731 15.2254 147.723 15.2294 147.719L15.2335 147.698Z" fill="#4AA5A2"/>
<path d="M9.74122 142.049C9.74122 142.049 9.73317 141.654 9.65672 141.053C9.5843 140.456 9.42336 139.673 9.18596 138.911C8.94857 138.149 8.63071 137.415 8.32894 136.899C8.03119 136.379 7.77368 136.072 7.77368 136.072C7.77368 136.072 8.0151 136.391 8.28065 136.923C8.55426 137.452 8.82786 138.194 9.021 138.956C9.21413 139.718 9.33081 140.496 9.37105 141.081C9.41531 141.662 9.39921 142.057 9.39921 142.057C9.39519 142.15 9.46762 142.226 9.56418 142.23C9.65673 142.234 9.7372 142.162 9.74122 142.069C9.74122 142.065 9.74122 142.065 9.74122 142.061V142.049Z" fill="#4AA5A2"/>
<path d="M45.2092 197.977C47.905 196.324 50.5888 192.791 53.0391 190.803C55.4935 188.819 58.1008 186.932 61.0823 185.871C64.0638 184.811 67.4919 184.653 70.2762 186.069C73.0605 187.484 74.9597 190.686 74.2596 193.715C73.6681 196.267 71.4672 198.191 69.1456 199.501C61.7381 203.683 51.8562 203.054 45.2092 197.977Z" fill="#65D1CA"/>
<path d="M73.0565 188.48C73.0565 188.48 72.7708 188.69 72.2719 189.057C71.7689 189.424 71.0688 189.92 70.1716 190.485C69.729 190.775 69.2421 191.065 68.7191 191.368C68.2 191.678 67.6327 191.973 67.0533 192.287C65.8824 192.892 64.5989 193.485 63.2953 194.021C61.9836 194.541 60.6477 195.005 59.3763 195.38C58.7365 195.554 58.1209 195.739 57.5294 195.876C56.938 196.021 56.3787 196.15 55.8556 196.251C54.8135 196.469 53.9404 196.602 53.3248 196.683C52.7092 196.763 52.3591 196.812 52.3591 196.812C52.3591 196.812 52.7132 196.779 53.3288 196.723C53.9444 196.663 54.8296 196.566 55.8798 196.388C56.4069 196.312 56.9742 196.203 57.5737 196.082C58.1732 195.969 58.8009 195.808 59.4487 195.658C60.7443 195.328 62.1083 194.916 63.4562 194.445C64.7961 193.957 66.1198 193.408 67.3349 192.84C67.9345 192.541 68.5219 192.267 69.0611 191.973C69.6043 191.682 70.1153 191.408 70.578 191.13C71.5034 190.597 72.2719 190.097 72.7829 189.755C73.2979 189.408 73.5916 189.21 73.5916 189.21C73.8049 189.069 73.8572 188.787 73.7164 188.581C73.5755 188.375 73.2858 188.327 73.0766 188.468C73.0645 188.472 73.0605 188.48 73.0565 188.48Z" fill="#4AA5A2"/>
<path d="M70.1032 190.831C70.1032 190.831 70.067 191.38 69.894 192.158C69.729 192.948 69.387 193.985 68.9082 194.965C68.4294 195.945 67.8178 196.868 67.2787 197.497C66.7435 198.13 66.317 198.493 66.317 198.493C66.317 198.493 66.7636 198.159 67.335 197.546C67.9144 196.945 68.5863 196.045 69.1295 195.074C69.6727 194.102 70.0831 193.057 70.3004 192.251C70.5297 191.432 70.5941 190.892 70.5941 190.892L70.5981 190.868C70.6142 190.735 70.5176 190.614 70.3808 190.601C70.244 190.589 70.1193 190.686 70.1032 190.819C70.1032 190.823 70.1032 190.827 70.1032 190.831Z" fill="#4AA5A2"/>
<path d="M63.6091 193.993C63.6091 193.993 63.5004 194.424 63.2711 195.037C63.0458 195.658 62.6796 196.465 62.233 197.235C61.7864 198.001 61.2553 198.731 60.7805 199.207C60.3137 199.691 59.9275 199.941 59.9275 199.941C59.9275 199.941 60.3298 199.723 60.8368 199.264C61.3518 198.816 61.9433 198.118 62.4583 197.368C62.9693 196.618 63.4039 195.816 63.6815 195.195C63.9672 194.566 64.108 194.142 64.108 194.142L64.112 194.126C64.1563 193.989 64.0798 193.848 63.943 193.803C63.8062 193.763 63.6574 193.84 63.6131 193.973C63.6131 193.981 63.6091 193.985 63.6091 193.993Z" fill="#4AA5A2"/>
<path d="M57.6422 195.872C57.6422 195.872 57.5014 196.163 57.2479 196.562C56.9984 196.965 56.6162 197.481 56.1897 197.961C55.7592 198.437 55.2803 198.872 54.886 199.155C54.4917 199.441 54.198 199.582 54.198 199.582C54.198 199.582 54.4998 199.457 54.9142 199.195C55.3286 198.937 55.8437 198.526 56.3104 198.07C56.7731 197.61 57.1956 197.11 57.4813 196.707C57.771 196.304 57.9279 196.025 57.9279 196.025L57.9319 196.017C57.9762 195.941 57.948 195.844 57.8675 195.8C57.7911 195.759 57.6905 195.788 57.6462 195.864C57.6462 195.868 57.6422 195.868 57.6422 195.872Z" fill="#4AA5A2"/>
<path d="M70.3567 190.702C70.3567 190.702 69.9463 190.331 69.222 189.868C68.5139 189.404 67.4959 188.896 66.4296 188.529C65.3634 188.166 64.2529 187.936 63.412 187.863C62.571 187.783 62.0077 187.819 62.0077 187.819C62.0077 187.819 62.575 187.811 63.4039 187.936C64.2328 188.053 65.3191 188.339 66.3411 188.751C67.3671 189.166 68.3248 189.714 68.9806 190.198C69.6324 190.67 70.0267 191.065 70.0267 191.065C70.1233 191.162 70.2802 191.162 70.3768 191.065C70.4774 190.972 70.4774 190.815 70.3848 190.722C70.3808 190.718 70.3808 190.718 70.3768 190.714L70.3567 190.702Z" fill="#4AA5A2"/>
<path d="M63.9954 193.848C63.9954 193.848 63.6092 193.618 62.9815 193.332C62.3619 193.045 61.5089 192.727 60.6277 192.493C59.7465 192.263 58.8452 192.122 58.1612 192.122C57.4772 192.11 57.0306 192.211 57.0306 192.211C57.0306 192.211 57.4853 192.146 58.1572 192.202C58.8291 192.251 59.7063 192.452 60.5512 192.739C61.3922 193.029 62.2009 193.4 62.7803 193.719C63.3557 194.033 63.7218 194.287 63.7218 194.287C63.8385 194.368 64.0035 194.34 64.088 194.223C64.1725 194.106 64.1483 193.944 64.0276 193.864C64.0236 193.86 64.0196 193.856 64.0115 193.856L63.9954 193.848Z" fill="#4AA5A2"/>
<path d="M57.8514 195.803C57.8514 195.803 57.5576 195.67 57.0869 195.517C56.6201 195.364 55.9844 195.207 55.3406 195.114C54.6928 195.021 54.041 194.993 53.5501 195.033C53.0633 195.066 52.7454 195.146 52.7454 195.146C52.7454 195.146 53.0673 195.09 53.5542 195.086C54.041 195.078 54.6808 195.142 55.3084 195.275C55.9361 195.408 56.5477 195.598 56.9863 195.775C57.4249 195.949 57.7105 196.098 57.7105 196.098C57.791 196.138 57.8876 196.11 57.9318 196.033C57.9761 195.957 57.9479 195.86 57.8675 195.82C57.8634 195.82 57.8634 195.816 57.8594 195.816L57.8514 195.803Z" fill="#4AA5A2"/>
<path d="M103.588 216.926C106.424 215.188 109.249 211.466 111.832 209.377C114.415 207.288 117.159 205.304 120.298 204.187C123.436 203.07 127.045 202.905 129.974 204.397C132.904 205.889 134.903 209.256 134.167 212.442C133.543 215.128 131.23 217.152 128.783 218.531C120.986 222.935 110.585 222.27 103.588 216.926Z" fill="#65D1CA"/>
<path d="M132.899 206.933C132.899 206.933 132.598 207.155 132.075 207.542C131.543 207.93 130.807 208.45 129.866 209.047C129.403 209.349 128.884 209.655 128.337 209.978C127.793 210.305 127.194 210.615 126.586 210.946C125.351 211.583 124.003 212.208 122.627 212.773C121.247 213.321 119.839 213.809 118.499 214.204C117.827 214.39 117.179 214.583 116.556 214.724C115.932 214.878 115.344 215.015 114.793 215.12C113.699 215.346 112.777 215.487 112.13 215.575C111.482 215.66 111.112 215.708 111.112 215.708C111.112 215.708 111.482 215.672 112.134 215.616C112.781 215.555 113.711 215.45 114.817 215.265C115.373 215.184 115.968 215.067 116.6 214.942C117.232 214.825 117.891 214.656 118.575 214.499C119.939 214.152 121.376 213.716 122.792 213.22C124.204 212.708 125.593 212.132 126.872 211.531C127.504 211.216 128.123 210.93 128.691 210.619C129.262 210.317 129.801 210.022 130.284 209.732C131.258 209.172 132.071 208.647 132.606 208.284C133.145 207.917 133.455 207.712 133.455 207.712C133.676 207.563 133.736 207.264 133.587 207.05C133.439 206.837 133.137 206.78 132.916 206.933C132.911 206.925 132.903 206.929 132.899 206.933Z" fill="#4AA5A2"/>
<path d="M129.789 209.405C129.789 209.405 129.749 209.982 129.568 210.805C129.395 211.635 129.033 212.724 128.53 213.761C128.027 214.793 127.383 215.765 126.812 216.426C126.249 217.096 125.802 217.475 125.802 217.475C125.802 217.475 126.273 217.12 126.876 216.479C127.488 215.846 128.192 214.898 128.763 213.874C129.335 212.849 129.765 211.752 129.995 210.902C130.236 210.043 130.304 209.47 130.304 209.47L130.308 209.446C130.324 209.305 130.224 209.18 130.079 209.163C129.934 209.147 129.805 209.252 129.789 209.393C129.789 209.397 129.789 209.401 129.789 209.405Z" fill="#4AA5A2"/>
<path d="M122.957 212.732C122.957 212.732 122.841 213.188 122.603 213.833C122.366 214.487 121.979 215.338 121.513 216.148C121.042 216.955 120.483 217.721 119.984 218.225C119.489 218.737 119.087 218.995 119.087 218.995C119.087 218.995 119.509 218.765 120.044 218.285C120.587 217.814 121.207 217.08 121.75 216.289C122.289 215.499 122.744 214.656 123.038 213.999C123.339 213.337 123.488 212.89 123.488 212.89L123.492 212.874C123.541 212.732 123.46 212.579 123.315 212.535C123.17 212.49 123.014 212.571 122.965 212.712C122.957 212.72 122.957 212.728 122.957 212.732Z" fill="#4AA5A2"/>
<path d="M116.676 214.712C116.676 214.712 116.528 215.019 116.262 215.438C115.996 215.866 115.598 216.406 115.147 216.91C114.697 217.41 114.19 217.87 113.775 218.164C113.361 218.463 113.051 218.616 113.051 218.616C113.051 218.616 113.369 218.483 113.804 218.209C114.242 217.938 114.781 217.507 115.272 217.023C115.759 216.539 116.206 216.011 116.503 215.592C116.809 215.168 116.974 214.874 116.974 214.874L116.978 214.866C117.022 214.785 116.994 214.684 116.914 214.64C116.829 214.595 116.729 214.628 116.68 214.708C116.676 214.708 116.676 214.708 116.676 214.712Z" fill="#4AA5A2"/>
<path d="M130.059 209.272C130.059 209.272 129.628 208.881 128.864 208.393C128.116 207.901 127.049 207.373 125.927 206.986C124.804 206.603 123.637 206.361 122.748 206.288C121.863 206.204 121.267 206.244 121.267 206.244C121.267 206.244 121.863 206.236 122.736 206.369C123.609 206.49 124.752 206.792 125.83 207.228C126.908 207.667 127.918 208.24 128.61 208.752C129.298 209.248 129.713 209.664 129.713 209.664C129.813 209.764 129.978 209.764 130.083 209.664C130.188 209.563 130.192 209.401 130.091 209.301C130.087 209.297 130.087 209.297 130.083 209.293L130.059 209.272Z" fill="#4AA5A2"/>
<path d="M123.364 212.579C123.364 212.579 122.957 212.337 122.297 212.039C121.645 211.736 120.744 211.402 119.823 211.156C118.897 210.914 117.944 210.769 117.224 210.765C116.503 210.752 116.033 210.857 116.033 210.857C116.033 210.857 116.511 210.789 117.215 210.849C117.924 210.902 118.849 211.111 119.734 211.414C120.619 211.716 121.472 212.107 122.08 212.446C122.684 212.777 123.07 213.043 123.07 213.043C123.195 213.128 123.368 213.099 123.456 212.978C123.545 212.857 123.516 212.688 123.396 212.599C123.392 212.595 123.384 212.591 123.38 212.587L123.364 212.579Z" fill="#4AA5A2"/>
<path d="M116.898 214.64C116.898 214.64 116.588 214.499 116.093 214.341C115.602 214.18 114.934 214.015 114.254 213.914C113.574 213.817 112.886 213.789 112.371 213.829C111.856 213.866 111.522 213.946 111.522 213.946C111.522 213.946 111.86 213.886 112.371 213.882C112.882 213.874 113.558 213.942 114.218 214.079C114.878 214.216 115.522 214.418 115.984 214.608C116.447 214.789 116.745 214.946 116.745 214.946C116.829 214.991 116.93 214.958 116.978 214.878C117.022 214.797 116.994 214.696 116.91 214.652C116.906 214.652 116.906 214.648 116.902 214.648L116.898 214.64Z" fill="#4AA5A2"/>
<path d="M209.183 221.64C212.02 219.902 214.844 216.18 217.427 214.091C220.01 212.002 222.755 210.018 225.893 208.901C229.031 207.784 232.64 207.619 235.57 209.111C238.499 210.603 240.499 213.97 239.762 217.156C239.139 219.842 236.825 221.866 234.379 223.245C226.581 227.645 216.176 226.984 209.183 221.64Z" fill="#65D1CA"/>
<path d="M238.491 211.648C238.491 211.648 238.189 211.869 237.666 212.257C237.135 212.644 236.399 213.164 235.457 213.761C234.994 214.063 234.475 214.37 233.928 214.692C233.385 215.019 232.785 215.329 232.178 215.66C230.943 216.297 229.595 216.922 228.219 217.487C226.839 218.035 225.43 218.523 224.09 218.918C223.418 219.104 222.771 219.298 222.147 219.439C221.523 219.592 220.936 219.729 220.385 219.834C219.29 220.06 218.369 220.201 217.721 220.29C217.073 220.374 216.703 220.423 216.703 220.423C216.703 220.423 217.073 220.386 217.725 220.33C218.373 220.269 219.302 220.165 220.409 219.979C220.964 219.898 221.56 219.781 222.191 219.656C222.823 219.539 223.483 219.37 224.167 219.213C225.531 218.866 226.967 218.431 228.384 217.934C229.796 217.422 231.188 216.846 232.464 216.245C233.095 215.93 233.715 215.644 234.282 215.333C234.854 215.031 235.393 214.737 235.876 214.446C236.849 213.886 237.662 213.362 238.197 212.999C238.736 212.632 239.046 212.426 239.046 212.426C239.267 212.277 239.328 211.978 239.179 211.765C239.03 211.551 238.728 211.494 238.503 211.648C238.503 211.64 238.495 211.644 238.491 211.648Z" fill="#4AA5A2"/>
<path d="M235.38 214.119C235.38 214.119 235.34 214.696 235.159 215.519C234.986 216.349 234.624 217.438 234.121 218.475C233.618 219.507 232.974 220.479 232.403 221.14C231.84 221.81 231.393 222.189 231.393 222.189C231.393 222.189 231.864 221.834 232.467 221.193C233.079 220.56 233.783 219.612 234.354 218.588C234.926 217.563 235.356 216.466 235.586 215.616C235.827 214.757 235.895 214.184 235.895 214.184L235.899 214.16C235.916 214.019 235.815 213.894 235.67 213.878C235.525 213.861 235.397 213.966 235.38 214.107C235.384 214.107 235.38 214.115 235.38 214.119Z" fill="#4AA5A2"/>
<path d="M228.549 217.446C228.549 217.446 228.432 217.902 228.195 218.547C227.957 219.201 227.571 220.052 227.104 220.862C226.633 221.669 226.074 222.435 225.575 222.939C225.08 223.451 224.678 223.709 224.678 223.709C224.678 223.709 225.1 223.479 225.636 222.999C226.179 222.528 226.798 221.794 227.342 221.003C227.881 220.213 228.335 219.37 228.629 218.713C228.931 218.051 229.08 217.604 229.08 217.604L229.084 217.588C229.132 217.446 229.052 217.293 228.907 217.249C228.762 217.204 228.605 217.285 228.557 217.426C228.553 217.434 228.549 217.438 228.549 217.446Z" fill="#4AA5A2"/>
<path d="M222.268 219.426C222.268 219.426 222.119 219.733 221.853 220.152C221.588 220.58 221.19 221.12 220.739 221.624C220.288 222.124 219.781 222.584 219.367 222.878C218.952 223.177 218.643 223.33 218.643 223.33C218.643 223.33 218.96 223.197 219.395 222.923C219.834 222.653 220.373 222.221 220.864 221.737C221.35 221.253 221.797 220.725 222.095 220.306C222.401 219.882 222.566 219.588 222.566 219.588L222.57 219.58C222.614 219.499 222.586 219.398 222.505 219.354C222.421 219.309 222.32 219.342 222.272 219.422C222.272 219.418 222.268 219.422 222.268 219.426Z" fill="#4AA5A2"/>
<path d="M235.65 213.982C235.65 213.982 235.22 213.591 234.455 213.103C233.707 212.611 232.64 212.083 231.518 211.696C230.395 211.313 229.228 211.071 228.339 210.998C227.454 210.914 226.859 210.954 226.859 210.954C226.859 210.954 227.454 210.946 228.327 211.079C229.2 211.2 230.343 211.502 231.421 211.938C232.5 212.377 233.51 212.95 234.202 213.462C234.89 213.958 235.304 214.374 235.304 214.374C235.405 214.474 235.57 214.474 235.674 214.374C235.779 214.273 235.783 214.111 235.682 214.011C235.678 214.007 235.678 214.007 235.674 214.003L235.65 213.982Z" fill="#4AA5A2"/>
<path d="M228.955 217.293C228.955 217.293 228.549 217.051 227.889 216.753C227.237 216.45 226.336 216.116 225.414 215.87C224.489 215.628 223.535 215.483 222.815 215.479C222.095 215.466 221.624 215.571 221.624 215.571C221.624 215.571 222.103 215.503 222.807 215.563C223.515 215.616 224.44 215.825 225.326 216.128C226.211 216.43 227.064 216.821 227.671 217.16C228.275 217.491 228.661 217.757 228.661 217.757C228.786 217.842 228.959 217.813 229.048 217.692C229.136 217.571 229.108 217.402 228.987 217.313C228.983 217.309 228.975 217.305 228.971 217.301L228.955 217.293Z" fill="#4AA5A2"/>
<path d="M222.489 219.354C222.489 219.354 222.179 219.213 221.684 219.055C221.193 218.894 220.525 218.729 219.845 218.628C219.165 218.531 218.477 218.503 217.962 218.543C217.447 218.58 217.113 218.66 217.113 218.66C217.113 218.66 217.451 218.6 217.962 218.596C218.473 218.588 219.149 218.656 219.809 218.793C220.469 218.93 221.113 219.132 221.576 219.322C222.038 219.503 222.336 219.66 222.336 219.66C222.421 219.705 222.521 219.672 222.569 219.592C222.614 219.511 222.586 219.41 222.501 219.366C222.497 219.366 222.497 219.362 222.493 219.362L222.489 219.354Z" fill="#4AA5A2"/>
<path d="M234.954 187.355C237.968 187.726 242.188 186.734 245.242 186.722C248.296 186.714 251.398 186.867 254.239 187.831C257.08 188.795 259.659 190.678 260.757 193.319C261.856 195.961 261.164 199.376 258.701 201.159C256.625 202.659 253.796 202.772 251.27 202.369C243.218 201.086 236.483 194.888 234.954 187.355Z" fill="#65D1CA"/>
<path d="M261.208 196.679C261.208 196.679 260.866 196.666 260.27 196.638C259.667 196.61 258.842 196.562 257.832 196.449C257.329 196.4 256.786 196.328 256.21 196.243C255.635 196.166 255.035 196.049 254.412 195.941C253.173 195.699 251.865 195.38 250.577 195.009C249.294 194.622 248.026 194.178 246.868 193.715C246.292 193.469 245.729 193.247 245.214 192.997C244.695 192.759 244.204 192.525 243.765 192.295C242.872 191.848 242.156 191.432 241.657 191.138C241.158 190.839 240.876 190.67 240.876 190.67C240.876 190.67 241.154 190.851 241.637 191.17C242.12 191.485 242.824 191.928 243.697 192.412C244.128 192.662 244.61 192.912 245.121 193.174C245.628 193.444 246.184 193.69 246.751 193.961C247.898 194.477 249.153 194.969 250.432 195.412C251.716 195.84 253.024 196.211 254.271 196.505C254.895 196.638 255.498 196.783 256.078 196.884C256.657 196.993 257.204 197.09 257.715 197.158C258.729 197.312 259.606 197.4 260.198 197.449C260.793 197.497 261.135 197.525 261.135 197.525C261.381 197.546 261.602 197.372 261.63 197.142C261.658 196.912 261.485 196.707 261.24 196.691C261.22 196.679 261.212 196.679 261.208 196.679Z" fill="#4AA5A2"/>
<path d="M257.559 196.658C257.559 196.658 257.176 197.033 256.549 197.497C255.921 197.973 255.004 198.521 254.026 198.953C253.048 199.384 252.01 199.695 251.213 199.836C250.417 199.985 249.878 199.997 249.878 199.997C249.878 199.997 250.417 200.014 251.225 199.905C252.034 199.808 253.096 199.546 254.118 199.159C255.136 198.771 256.106 198.255 256.786 197.8C257.478 197.34 257.876 196.989 257.876 196.989L257.893 196.973C257.989 196.884 257.997 196.743 257.909 196.654C257.82 196.566 257.667 196.562 257.571 196.65C257.563 196.65 257.559 196.654 257.559 196.658Z" fill="#4AA5A2"/>
<path d="M250.823 195.166C250.823 195.166 250.465 195.416 249.906 195.727C249.342 196.045 248.558 196.416 247.737 196.715C246.916 197.009 246.067 197.227 245.415 197.296C244.763 197.376 244.325 197.328 244.325 197.328C244.325 197.328 244.755 197.404 245.419 197.368C246.083 197.344 246.96 197.183 247.813 196.941C248.666 196.695 249.499 196.368 250.103 196.082C250.714 195.795 251.089 195.57 251.089 195.57L251.105 195.562C251.225 195.489 251.262 195.34 251.189 195.231C251.117 195.122 250.96 195.09 250.839 195.162C250.835 195.162 250.831 195.166 250.823 195.166Z" fill="#4AA5A2"/>
<path d="M245.299 193.061C245.299 193.061 245.009 193.19 244.57 193.332C244.128 193.477 243.52 193.63 242.901 193.727C242.281 193.824 241.653 193.856 241.187 193.832C240.72 193.807 240.414 193.743 240.414 193.743C240.414 193.743 240.712 193.828 241.183 193.88C241.649 193.936 242.285 193.936 242.917 193.876C243.548 193.816 244.176 193.695 244.639 193.574C245.11 193.453 245.403 193.34 245.403 193.34L245.411 193.336C245.492 193.303 245.536 193.219 245.504 193.142C245.476 193.065 245.383 193.029 245.303 193.061C245.303 193.057 245.299 193.057 245.299 193.061Z" fill="#4AA5A2"/>
<path d="M257.824 196.715C257.824 196.715 257.768 196.207 257.542 195.453C257.329 194.703 256.923 193.747 256.387 192.864C255.852 191.981 255.196 191.17 254.633 190.63C254.078 190.081 253.643 189.783 253.643 189.783C253.643 189.783 254.058 190.105 254.577 190.678C255.104 191.243 255.699 192.081 256.174 192.977C256.645 193.872 256.987 194.828 257.148 195.557C257.317 196.279 257.345 196.791 257.345 196.791C257.353 196.916 257.466 197.009 257.599 196.997C257.731 196.985 257.832 196.876 257.824 196.751C257.824 196.747 257.824 196.743 257.824 196.739V196.715Z" fill="#4AA5A2"/>
<path d="M251.197 195.287C251.197 195.287 251.069 194.9 250.799 194.328C250.537 193.759 250.127 193.033 249.64 192.356C249.153 191.678 248.59 191.053 248.095 190.654C247.608 190.247 247.222 190.061 247.222 190.061C247.222 190.061 247.592 190.275 248.039 190.71C248.493 191.138 248.996 191.791 249.423 192.489C249.845 193.186 250.191 193.924 250.401 194.493C250.614 195.053 250.714 195.449 250.714 195.449C250.747 195.578 250.883 195.65 251.02 195.618C251.157 195.582 251.242 195.453 251.209 195.324C251.209 195.32 251.205 195.312 251.205 195.307L251.197 195.287Z" fill="#4AA5A2"/>
<path d="M245.496 193.134C245.496 193.134 245.371 192.868 245.125 192.485C244.888 192.102 244.53 191.622 244.124 191.178C243.717 190.735 243.263 190.335 242.884 190.081C242.51 189.823 242.229 189.694 242.229 189.694C242.229 189.694 242.498 189.839 242.852 190.118C243.21 190.392 243.629 190.815 243.999 191.275C244.369 191.735 244.687 192.227 244.892 192.614C245.097 192.993 245.206 193.267 245.206 193.267C245.234 193.344 245.327 193.38 245.407 193.348C245.488 193.315 245.532 193.231 245.5 193.154C245.5 193.15 245.496 193.15 245.496 193.146V193.134Z" fill="#4AA5A2"/>
<path d="M161.515 229C161.149 225.814 158.908 221.749 158.099 218.624C157.286 215.495 156.651 212.277 157.005 209.115C157.359 205.954 158.823 202.816 161.539 200.998C164.255 199.179 168.327 198.993 170.999 201.05C173.252 202.784 174.117 205.655 174.322 208.345C174.974 216.93 169.687 225.459 161.515 229Z" fill="#65D1CA"/>
<path d="M165.241 199.655C165.241 199.655 165.313 200.01 165.442 200.627C165.571 201.252 165.732 202.111 165.865 203.175C165.945 203.703 166.002 204.28 166.058 204.889C166.122 205.498 166.146 206.143 166.187 206.809C166.235 208.143 166.219 209.563 166.13 210.982C166.026 212.398 165.857 213.813 165.631 215.124C165.503 215.777 165.394 216.414 165.249 217.007C165.112 217.604 164.98 218.164 164.831 218.677C164.553 219.709 164.271 220.552 164.066 221.14C163.857 221.729 163.736 222.064 163.736 222.064C163.736 222.064 163.869 221.733 164.106 221.157C164.34 220.576 164.658 219.741 164.98 218.721C165.153 218.213 165.309 217.656 165.474 217.064C165.647 216.475 165.784 215.842 165.941 215.188C166.227 213.878 166.46 212.462 166.625 211.035C166.774 209.607 166.855 208.168 166.863 206.817C166.851 206.139 166.859 205.486 166.818 204.865C166.79 204.244 166.754 203.655 166.698 203.115C166.609 202.034 166.476 201.115 166.376 200.498C166.275 199.876 166.215 199.518 166.215 199.518C166.175 199.26 165.921 199.078 165.647 199.11C165.378 199.143 165.193 199.372 165.233 199.631C165.237 199.639 165.241 199.647 165.241 199.655Z" fill="#4AA5A2"/>
<path d="M166.174 203.401C166.174 203.401 166.702 203.695 167.394 204.216C168.098 204.736 168.963 205.53 169.715 206.422C170.464 207.313 171.091 208.293 171.457 209.071C171.836 209.845 171.993 210.398 171.993 210.398C171.993 210.398 171.868 209.841 171.534 209.043C171.212 208.24 170.637 207.22 169.928 206.276C169.22 205.333 168.379 204.474 167.679 203.897C166.975 203.308 166.468 202.994 166.468 202.994L166.448 202.982C166.323 202.905 166.158 202.933 166.082 203.05C166.005 203.167 166.042 203.32 166.166 203.397C166.166 203.393 166.17 203.397 166.174 203.401Z" fill="#4AA5A2"/>
<path d="M166.247 210.688C166.247 210.688 166.625 210.99 167.124 211.482C167.631 211.974 168.263 212.684 168.814 213.446C169.365 214.208 169.836 215.023 170.081 215.676C170.343 216.326 170.403 216.785 170.403 216.785C170.403 216.785 170.375 216.321 170.162 215.652C169.961 214.979 169.546 214.124 169.047 213.313C168.544 212.503 167.953 211.736 167.47 211.192C166.983 210.64 166.629 210.313 166.629 210.313L166.617 210.301C166.504 210.196 166.323 210.196 166.219 210.301C166.114 210.406 166.118 210.571 166.231 210.676C166.235 210.68 166.243 210.684 166.247 210.688Z" fill="#4AA5A2"/>
<path d="M165.297 216.906C165.297 216.906 165.518 217.168 165.796 217.584C166.078 217.999 166.412 218.58 166.685 219.189C166.955 219.798 167.16 220.431 167.253 220.919C167.349 221.403 167.353 221.733 167.353 221.733C167.353 221.733 167.373 221.407 167.305 220.911C167.245 220.419 167.08 219.765 166.846 219.136C166.609 218.503 166.311 217.894 166.05 217.451C165.788 217.003 165.583 216.729 165.583 216.729L165.575 216.721C165.518 216.644 165.41 216.624 165.329 216.676C165.253 216.725 165.233 216.83 165.289 216.906C165.293 216.898 165.293 216.902 165.297 216.906Z" fill="#4AA5A2"/>
<path d="M166.17 203.111C166.17 203.111 165.607 203.304 164.806 203.728C164.01 204.143 163.032 204.812 162.163 205.591C161.298 206.373 160.549 207.256 160.079 207.974C159.6 208.688 159.375 209.208 159.375 209.208C159.375 209.208 159.636 208.7 160.151 208.018C160.658 207.333 161.451 206.498 162.348 205.78C163.245 205.062 164.239 204.462 165.028 204.107C165.804 203.744 166.38 203.582 166.38 203.582C166.52 203.542 166.593 203.401 166.545 203.268C166.496 203.135 166.347 203.058 166.207 203.099C166.203 203.099 166.199 203.103 166.195 203.103L166.17 203.111Z" fill="#4AA5A2"/>
<path d="M166.287 210.273C166.287 210.273 165.881 210.506 165.297 210.934C164.722 211.353 164.002 211.962 163.358 212.64C162.714 213.317 162.151 214.059 161.825 214.668C161.491 215.273 161.378 215.721 161.378 215.721C161.378 215.721 161.527 215.285 161.901 214.712C162.268 214.136 162.879 213.446 163.563 212.829C164.247 212.212 164.996 211.668 165.587 211.301C166.166 210.934 166.593 210.728 166.593 210.728C166.73 210.664 166.778 210.502 166.702 210.369C166.625 210.24 166.456 210.188 166.319 210.252C166.315 210.256 166.307 210.256 166.303 210.26L166.287 210.273Z" fill="#4AA5A2"/>
<path d="M165.325 216.684C165.325 216.684 165.056 216.882 164.682 217.233C164.307 217.576 163.857 218.072 163.458 218.6C163.06 219.132 162.726 219.705 162.533 220.161C162.336 220.612 162.263 220.931 162.263 220.931C162.263 220.931 162.356 220.616 162.585 220.181C162.807 219.745 163.177 219.201 163.599 218.701C164.026 218.205 164.505 217.745 164.887 217.439C165.265 217.128 165.547 216.947 165.547 216.947C165.623 216.894 165.643 216.793 165.587 216.717C165.531 216.64 165.422 216.62 165.341 216.672C165.337 216.672 165.337 216.676 165.333 216.676L165.325 216.684Z" fill="#4AA5A2"/>
<path d="M274.824 227.734C273.399 224.826 269.911 221.657 268.084 218.943C266.262 216.225 264.572 213.37 263.839 210.264C263.107 207.159 263.437 203.744 265.396 201.195C267.356 198.646 271.15 197.235 274.373 198.368C277.089 199.324 278.884 201.784 279.982 204.272C283.503 212.212 281.37 221.899 274.824 227.734Z" fill="#63D1CA"/>
<path d="M268.45 198.8C268.45 198.8 268.64 199.114 268.969 199.659C269.299 200.211 269.742 200.977 270.233 201.945C270.486 202.425 270.736 202.949 270.993 203.514C271.259 204.07 271.5 204.675 271.762 205.296C272.257 206.546 272.719 207.897 273.118 209.268C273.496 210.644 273.814 212.031 274.043 213.345C274.14 214.003 274.257 214.64 274.317 215.245C274.389 215.85 274.45 216.422 274.482 216.955C274.566 218.015 274.586 218.902 274.59 219.523C274.59 220.144 274.59 220.499 274.59 220.499C274.59 220.499 274.607 220.144 274.635 219.527C274.659 218.906 274.679 218.019 274.643 216.955C274.635 216.422 274.594 215.846 274.55 215.233C274.514 214.62 274.43 213.978 274.361 213.313C274.188 211.986 273.935 210.575 273.609 209.172C273.267 207.772 272.86 206.385 272.41 205.103C272.172 204.466 271.955 203.845 271.71 203.268C271.472 202.687 271.243 202.143 271.005 201.647C270.555 200.651 270.12 199.82 269.818 199.263C269.513 198.703 269.336 198.384 269.336 198.384C269.211 198.154 268.909 198.058 268.664 198.171C268.418 198.284 268.322 198.558 268.446 198.788C268.446 198.788 268.45 198.796 268.45 198.8Z" fill="#4AA5A2"/>
<path d="M270.603 202.066C270.603 202.066 271.203 202.183 272.031 202.465C272.876 202.744 273.963 203.232 274.973 203.849C275.983 204.466 276.904 205.204 277.516 205.833C278.135 206.454 278.469 206.93 278.469 206.93C278.469 206.93 278.163 206.438 277.58 205.784C277.005 205.123 276.111 204.328 275.126 203.651C274.136 202.974 273.049 202.413 272.192 202.082C271.327 201.74 270.74 201.594 270.74 201.594L270.716 201.59C270.571 201.554 270.426 201.635 270.39 201.768C270.354 201.901 270.442 202.038 270.587 202.074C270.591 202.062 270.599 202.066 270.603 202.066Z" fill="#4AA5A2"/>
<path d="M273.126 208.95C273.126 208.95 273.584 209.123 274.224 209.434C274.872 209.748 275.709 210.228 276.489 210.781C277.266 211.337 277.99 211.966 278.445 212.507C278.912 213.039 279.125 213.458 279.125 213.458C279.125 213.458 278.944 213.031 278.517 212.458C278.099 211.882 277.419 211.196 276.671 210.579C275.918 209.966 275.105 209.418 274.462 209.051C273.814 208.676 273.367 208.474 273.367 208.474L273.351 208.466C273.21 208.401 273.037 208.454 272.973 208.587C272.908 208.716 272.969 208.873 273.114 208.938C273.114 208.946 273.122 208.95 273.126 208.95Z" fill="#4AA5A2"/>
<path d="M274.325 215.128C274.325 215.128 274.622 215.309 275.025 215.616C275.431 215.922 275.942 216.374 276.409 216.866C276.872 217.362 277.278 217.898 277.527 218.33C277.785 218.761 277.898 219.072 277.898 219.072C277.898 219.072 277.805 218.753 277.576 218.31C277.354 217.862 276.976 217.293 276.542 216.765C276.107 216.237 275.616 215.749 275.218 215.41C274.82 215.063 274.534 214.866 274.534 214.866L274.526 214.858C274.445 214.801 274.337 214.817 274.28 214.89C274.224 214.962 274.24 215.063 274.321 215.12C274.321 215.124 274.321 215.124 274.325 215.128Z" fill="#4AA5A2"/>
<path d="M270.499 201.796C270.499 201.796 270.032 202.147 269.416 202.796C268.801 203.429 268.1 204.361 267.541 205.365C266.986 206.369 266.572 207.434 266.37 208.256C266.161 209.079 266.117 209.639 266.117 209.639C266.117 209.639 266.193 209.079 266.451 208.276C266.7 207.47 267.171 206.442 267.775 205.49C268.382 204.538 269.122 203.667 269.75 203.086C270.362 202.51 270.853 202.179 270.853 202.179C270.969 202.098 270.993 201.945 270.905 201.832C270.816 201.719 270.647 201.695 270.527 201.776C270.523 201.78 270.519 201.78 270.515 201.784L270.499 201.796Z" fill="#4AA5A2"/>
<path d="M273.025 208.547C273.025 208.547 272.719 208.893 272.313 209.474C271.907 210.047 271.432 210.845 271.05 211.68C270.671 212.515 270.386 213.39 270.285 214.067C270.172 214.741 270.217 215.2 270.217 215.2C270.217 215.2 270.209 214.741 270.374 214.087C270.527 213.43 270.873 212.591 271.311 211.797C271.75 211.007 272.277 210.26 272.711 209.736C273.138 209.216 273.472 208.889 273.472 208.889C273.58 208.785 273.572 208.619 273.456 208.518C273.339 208.418 273.162 208.422 273.053 208.522C273.049 208.526 273.045 208.53 273.041 208.534L273.025 208.547Z" fill="#4AA5A2"/>
<path d="M274.281 214.91C274.281 214.91 274.091 215.18 273.858 215.624C273.621 216.063 273.359 216.668 273.158 217.293C272.961 217.918 272.836 218.564 272.808 219.051C272.772 219.539 272.812 219.866 272.812 219.866C272.812 219.866 272.796 219.539 272.864 219.06C272.925 218.58 273.094 217.951 273.327 217.35C273.564 216.749 273.862 216.172 274.12 215.761C274.373 215.354 274.578 215.091 274.578 215.091C274.635 215.019 274.619 214.918 274.538 214.862C274.458 214.809 274.349 214.821 274.293 214.894C274.289 214.898 274.289 214.898 274.289 214.902L274.281 214.91Z" fill="#4AA5A2"/>
<path d="M148.129 45.6048C148.129 45.6048 151.585 21.9535 133.008 14.3279C114.435 6.70622 102.127 13.7714 96.9806 20.6349C98.0992 19.1428 103.692 19.4412 105.309 19.6066C109.373 20.0179 113.385 21.3083 116.423 23.99C123.045 29.8292 121.939 38.4953 117.485 44.6773L148.129 45.6048Z" fill="#FBF5EB"/>
<path d="M100.558 19.9252C101.185 17.2112 99.2218 14.4368 96.1679 13.7271C93.118 13.0173 90.1325 14.6425 89.5049 17.3604C88.8772 20.0744 90.8407 22.8488 93.8946 23.5586C96.9445 24.2683 99.93 22.6432 100.558 19.9252Z" fill="#FA6E5A"/>
<path d="M147.642 33.3819C148.028 35.3619 148.233 37.2492 148.322 38.9187C139.502 35.7369 129.576 35.249 120.724 37.5314C121.114 35.7531 121.207 33.9424 120.949 32.164C129.592 30.3292 138.991 30.7566 147.642 33.3819Z" fill="#FA6E5A"/>
<path d="M142.576 21.5826C143.976 23.4094 145.051 25.3773 145.867 27.3734C137.18 25.2442 127.954 25.6354 119.802 28.4017C119.05 26.8411 117.968 25.3611 116.471 24.0304C124.582 21.0583 133.724 20.2155 142.576 21.5826Z" fill="#FA6E5A"/>
<path d="M105.849 19.6711C110.202 15.6869 115.698 12.8117 121.706 11.2752C125.166 11.6906 128.936 12.6544 133.008 14.3279C133.644 14.59 134.247 14.8723 134.835 15.1707C126.739 14.5779 118.491 16.9088 112.331 21.3971C110.299 20.4898 108.09 19.9413 105.849 19.6711Z" fill="#FA6E5A"/>
<path d="M121.798 166.624L119.167 164.216C119.131 162.994 119.058 161.776 118.958 160.567C118.925 160.2 118.604 159.933 118.241 159.958C117.875 159.99 117.606 160.313 117.634 160.675C117.73 161.841 117.799 163.014 117.835 164.188C117.831 164.192 117.823 164.196 117.819 164.204L115.312 167.168C115.075 167.45 115.111 167.87 115.389 168.108C115.513 168.212 115.666 168.265 115.819 168.265C116.008 168.265 116.193 168.184 116.326 168.031L117.867 166.208C117.867 166.595 117.871 166.986 117.863 167.374C117.863 167.39 117.859 167.41 117.859 167.426V167.632C117.855 167.999 118.149 168.297 118.515 168.305C118.519 168.305 118.523 168.305 118.523 168.305C118.885 168.305 119.179 168.015 119.187 167.652C119.195 167.12 119.199 166.587 119.195 166.055L120.897 167.612C121.026 167.728 121.187 167.785 121.344 167.785C121.525 167.785 121.702 167.712 121.835 167.567C122.088 167.293 122.068 166.87 121.798 166.624Z" fill="#6C97A3"/>
<path d="M101.902 164.24C101.877 162.385 101.813 160.47 101.696 159.083C101.664 158.716 101.342 158.449 100.98 158.474C100.614 158.506 100.344 158.828 100.373 159.191C100.481 160.506 100.546 162.361 100.57 164.156C100.554 164.172 100.542 164.184 100.526 164.196L98.0188 167.16C97.7815 167.442 97.8177 167.862 98.0953 168.099C98.22 168.204 98.3729 168.257 98.5258 168.257C98.7149 168.257 98.9 168.176 99.0328 168.023L100.582 166.192C100.582 166.603 100.578 166.999 100.574 167.366C100.574 167.382 100.57 167.402 100.57 167.418V167.624C100.566 167.991 100.86 168.289 101.226 168.297C101.23 168.297 101.234 168.297 101.234 168.297C101.596 168.297 101.89 168.007 101.898 167.644C101.906 167.152 101.91 166.615 101.914 166.051L103.612 167.603C103.74 167.72 103.901 167.777 104.058 167.777C104.239 167.777 104.416 167.704 104.549 167.559C104.795 167.289 104.778 166.865 104.505 166.619L101.902 164.24Z" fill="#6C97A3"/>
<path d="M174.282 81.3459C174.025 70.4699 171.993 61.6224 168.066 54.287C164.4 47.4397 158.815 42.0642 152.748 39.5478C143.393 35.6685 133.841 34.3821 125.126 35.8257C115.332 37.4509 106.714 42.6207 101.483 50.0084C95.0011 59.1665 93.9429 70.8167 92.9249 82.0838L92.772 83.7453C91.7379 94.9801 89.9394 107.675 81.5784 116.155C79.3211 118.446 74.6819 122.128 68.9885 121.063C67.8297 120.845 66.7635 120.47 65.8139 119.942C65.4679 119.748 65.1017 119.523 64.7638 119.289C65.7415 116.793 66.3128 114.171 66.4537 111.49C66.5221 110.159 66.4939 108.453 65.653 107.074C65.2506 106.417 64.5183 105.763 63.6693 105.909C62.8847 106.042 62.3255 106.78 62.0519 108.046C61.565 110.288 61.573 112.655 62.0438 114.925L59.9515 109.744C59.7141 109.155 59.4446 108.485 58.9175 108.014C58.3984 107.55 57.5012 107.308 56.8695 107.78C56.4067 108.126 56.1975 108.743 56.2297 109.667C56.3021 111.929 57.135 114.111 58.4749 115.917C57.2316 114.978 55.9481 114.087 54.6323 113.26C53.7552 112.707 52.6165 112.139 51.6106 112.647C50.9789 112.97 50.5605 113.7 50.5484 114.506C50.5363 115.135 50.7536 115.809 51.1922 116.514C52.3268 118.337 54.4392 119.648 56.9861 120.111C57.8311 120.265 58.6801 120.325 59.517 120.325C60.6114 120.325 61.6857 120.22 62.7037 120.087C62.1082 128.519 68.3568 137.661 73.9738 144.069C74.7302 144.932 75.5269 145.775 76.3437 146.573C83.6908 153.772 93.0456 158.498 103.394 160.24C106.332 160.736 109.285 160.978 112.234 160.978C119.509 160.978 126.739 159.482 133.515 156.542C151.883 148.565 166.573 131.165 170.938 112.203C173.389 101.553 174.515 91.1693 174.282 81.3459Z" fill="#A2E0C1"/>
<path d="M114.62 105.546C111.333 104.05 107.812 104.429 105.438 105.013C101.628 105.949 97.8296 108.05 94.144 111.26C90.8769 114.111 88.0604 117.49 85.3364 120.757C84.7167 121.499 84.0126 122.341 83.6988 123.358C83.397 124.317 83.4936 125.62 84.3828 126.362C85.2076 127.052 86.3584 126.999 87.2717 126.882C89.9514 126.527 92.5185 125.539 94.7436 124.035C92.6553 126.451 90.5027 129.35 88.4989 132.463C88.1086 133.068 87.3039 134.572 88.2615 135.439C89.0139 136.121 90.3538 135.915 91.2792 135.435C95.1982 133.403 98.6062 131.27 102.211 129.011C102.473 128.85 102.734 128.685 102.996 128.519C102.883 128.632 102.775 128.745 102.662 128.858C100.147 131.407 97.548 134.04 95.7937 137.113C95.3028 137.972 94.816 138.891 94.6872 139.912C94.5424 141.069 94.9608 142.182 95.7454 142.746C96.2564 143.113 96.8519 143.243 97.4514 143.243C98.0308 143.243 98.6142 143.126 99.1293 142.992C103.66 141.839 108.215 139.113 112.677 134.891C117.698 130.137 120.656 125.225 121.464 120.301C122.478 114.127 119.537 107.784 114.62 105.546Z" fill="#87C7A7"/>
<path d="M132.078 63.3846C131.604 63.5016 131.31 63.9814 131.427 64.4573C131.753 65.7961 131.229 67.3285 130.159 68.1915C129.089 69.0545 127.479 69.2279 126.248 68.619C125.017 68.01 124.176 66.6228 124.208 65.2477C124.22 64.7557 123.83 64.3524 123.343 64.3404C122.86 64.3323 122.45 64.7194 122.438 65.2074C122.394 67.2842 123.609 69.2924 125.468 70.2118C126.212 70.5788 127.029 70.7603 127.85 70.7603C129.077 70.7603 130.304 70.357 131.274 69.5787C132.887 68.2802 133.644 66.0542 133.153 64.0379C133.036 63.5621 132.553 63.2677 132.078 63.3846Z" fill="#3F4553"/>
<path d="M162.119 64.0379C162.002 63.5621 161.523 63.2677 161.048 63.3846C160.574 63.5016 160.28 63.9814 160.396 64.4573C160.722 65.7961 160.199 67.3285 159.129 68.1915C158.059 69.0545 156.449 69.2279 155.218 68.619C153.987 68.01 153.146 66.6228 153.178 65.2477C153.19 64.7557 152.8 64.3524 152.313 64.3404C151.826 64.3323 151.42 64.7194 151.408 65.2074C151.363 67.2801 152.579 69.2924 154.438 70.2118C155.182 70.5788 155.999 70.7603 156.82 70.7603C158.047 70.7603 159.274 70.357 160.244 69.5787C161.853 68.2802 162.609 66.0542 162.119 64.0379Z" fill="#3F4553"/>
<path d="M160.453 88.411C160.216 87.8545 159.761 87.3746 159.439 87.0641C158.948 86.5883 158.453 86.1164 157.958 85.6446C156.345 84.1082 154.538 82.5556 152.277 80.7571C152.076 80.5958 151.855 80.4063 151.625 80.2046C150.684 79.382 149.509 78.3617 148.31 78.3617C147.875 78.3617 147.505 78.5875 147.111 78.8295L146.982 78.9061C146.29 79.3255 145.666 79.8417 145.131 80.4466C144.258 81.4225 143.204 82.9871 143.087 84.1768C143.083 84.2292 143.079 84.2816 143.079 84.334C143.079 84.3744 143.079 84.4106 143.083 84.451C143.159 85.5841 144.113 86.3382 144.958 87.0036C145.127 87.1367 145.288 87.2657 145.437 87.3907C146.443 88.2457 147.638 89.2417 148.901 90.1289C151.146 91.7056 153.713 92.9396 156.538 93.7945C156.671 93.8349 156.816 93.8591 156.964 93.8591C157.242 93.8591 157.516 93.7703 157.661 93.5163C157.785 93.2985 157.83 92.9275 157.327 92.4033L152.148 86.9875C153.351 87.427 154.546 87.8424 155.773 88.2013C156.61 88.4473 157.387 88.6409 158.139 88.7941C158.192 88.8062 158.284 88.8304 158.401 88.8667C159.173 89.0885 159.962 89.2861 160.316 89.0683C160.421 89.0038 160.489 88.911 160.513 88.7941C160.541 88.6449 160.497 88.5158 160.453 88.411Z" fill="#3F4553"/>
<path d="M130.767 76.5792C128.759 75.4582 124.953 76.1276 123.355 77.4463C122.981 77.7527 122.362 78.398 122.394 79.2488C122.414 79.8457 122.78 80.4465 123.392 80.9062C124.289 81.5716 125.512 81.9184 126.759 81.9184C127.661 81.9184 128.57 81.737 129.375 81.37C130.103 81.0353 130.686 80.5796 131.101 80.007C131.592 79.3295 131.801 78.4705 131.648 77.7689C131.539 77.2487 131.234 76.8373 130.767 76.5792Z" fill="#86D1AB"/>
<path d="M165.543 76.9462C165.43 76.4301 165.124 76.0187 164.658 75.7566C162.65 74.6356 158.844 75.305 157.246 76.6236C156.872 76.9301 156.252 77.5753 156.285 78.4262C156.305 79.023 156.671 79.6239 157.282 80.0836C158.18 80.749 159.403 81.0958 160.65 81.0958C161.551 81.0958 162.461 80.9143 163.265 80.5474C163.994 80.2127 164.577 79.757 164.992 79.1843C165.487 78.5069 165.696 77.6479 165.543 76.9462Z" fill="#86D1AB"/>
<path d="M136.698 131.318C136.187 131.749 135.543 132.286 134.903 132.508C134.332 132.705 134.223 132.512 134.05 132.012C133.909 131.616 133.873 131.217 133.873 130.798C133.877 129.939 132.545 129.939 132.545 130.798C132.541 131.882 132.863 133.685 134.135 133.967C135.35 134.238 136.786 132.983 137.639 132.262C138.295 131.709 137.349 130.769 136.698 131.318Z" fill="#A6D4E0"/>
<path d="M145.183 131.838C144.672 132.169 144.149 132.475 143.602 132.742C143.208 132.935 142.628 133.27 142.121 133.359C141.892 132.895 141.86 131.987 141.787 131.624C141.622 130.786 140.343 131.141 140.504 131.979C140.693 132.943 140.697 134.847 142.117 134.722C143.353 134.613 144.845 133.645 145.855 132.992C146.571 132.524 145.903 131.37 145.183 131.838Z" fill="#A6D4E0"/>
<path d="M153.307 133.169C153.041 133.342 152.78 133.516 152.514 133.689C152.273 133.846 151.939 134.161 151.661 134.225C151.585 134.242 151.561 134.262 151.557 134.274C151.549 134.266 151.537 134.258 151.513 134.242C151.424 134.185 151.356 133.935 151.319 133.846C151.187 133.508 151.122 133.161 151.102 132.798C151.054 131.947 149.726 131.939 149.774 132.798C149.827 133.709 150.084 135.133 151.042 135.528C152.056 135.943 153.202 134.834 153.983 134.322C154.691 133.85 154.027 132.697 153.307 133.169Z" fill="#A6D4E0"/>
<path d="M136.987 139.544C136.384 139.952 135.78 140.359 135.177 140.762C134.879 140.96 134.642 141.242 134.255 140.936C133.974 140.714 133.95 140.101 133.941 139.782C133.929 138.927 132.602 138.923 132.614 139.782C132.626 140.77 133.08 142.315 134.247 142.484C134.75 142.557 135.177 142.339 135.591 142.085C136.295 141.65 136.971 141.158 137.663 140.694C138.367 140.222 137.704 139.069 136.987 139.544Z" fill="#A6D4E0"/>
<path d="M145.984 140.847C145.296 141.4 144.523 142.025 143.638 142.21C142.423 142.464 142.242 141.69 142.286 140.686C142.322 139.827 140.995 139.831 140.958 140.686C140.902 142.012 141.252 143.351 142.749 143.565C144.358 143.791 145.742 142.738 146.925 141.795C147.593 141.254 146.648 140.315 145.984 140.847Z" fill="#A6D4E0"/>
<path d="M137.985 147.589C137.41 148.041 136.573 148.376 135.832 148.251C135.108 148.13 135.225 147.315 135.313 146.747C135.442 145.908 134.163 145.545 134.03 146.392C133.857 147.513 133.845 148.912 135.076 149.424C136.359 149.961 137.909 149.328 138.922 148.529C139.598 148.005 138.653 147.065 137.985 147.589Z" fill="#A6D4E0"/>
<path d="M137.526 112.607C136.935 113.413 136.138 114.446 135.028 114.425C133.76 114.405 133.652 113.03 133.603 112.054C133.563 111.199 132.231 111.195 132.276 112.054C132.352 113.607 132.734 115.381 134.513 115.712C136.356 116.05 137.687 114.619 138.673 113.276C139.18 112.591 138.025 111.925 137.526 112.607Z" fill="#A6D4E0"/>
<path d="M147.018 112.796C146.362 113.587 145.602 114.256 144.676 114.712C144.21 114.942 144.093 115.006 143.574 114.813C143.043 114.615 143.051 114.534 142.902 114.038C142.753 113.542 142.669 113.034 142.596 112.522C142.475 111.675 141.196 112.038 141.313 112.877C141.51 114.272 141.884 116.397 143.683 116.381C145.312 116.369 146.978 114.917 147.956 113.736C148.499 113.083 147.565 112.135 147.018 112.796Z" fill="#A6D4E0"/>
<path d="M155.665 114.361C155.085 114.877 154.128 115.732 153.323 115.865C152.325 116.03 152.08 114.155 152.011 113.478C151.923 112.635 150.591 112.623 150.684 113.478C150.812 114.716 151.186 116.708 152.567 117.176C153.939 117.639 155.669 116.135 156.606 115.305C157.242 114.732 156.3 113.792 155.665 114.361Z" fill="#A6D4E0"/>
<path d="M164.287 115.087C163.865 115.389 163.442 115.696 163.02 115.998C162.73 116.208 162.167 116.784 161.805 116.813C160.694 116.909 160.525 114.804 160.61 114.131C160.719 113.284 159.387 113.292 159.282 114.131C159.109 115.498 159.616 117.264 160.92 117.958C162.348 118.716 163.909 116.994 164.959 116.236C165.647 115.744 164.984 114.587 164.287 115.087Z" fill="#A6D4E0"/>
<path d="M137.16 122.458C136.637 122.966 135.168 124.16 134.529 123.333C134.05 122.716 133.973 121.599 133.792 120.865C133.591 120.031 132.308 120.386 132.509 121.22C132.795 122.398 132.951 124.18 134.199 124.781C135.531 125.418 137.172 124.297 138.098 123.406C138.717 122.805 137.776 121.865 137.16 122.458Z" fill="#A6D4E0"/>
<path d="M146.201 123.301C145.674 123.797 144.701 125.092 143.924 125.027C142.854 124.934 142.644 123.503 142.484 122.668C142.323 121.825 141.043 122.184 141.2 123.023C141.462 124.394 141.964 125.946 143.485 126.326C145.006 126.709 146.161 125.16 147.135 124.245C147.767 123.656 146.825 122.716 146.201 123.301Z" fill="#A6D4E0"/>
<path d="M154.647 124.217C154.321 124.539 153.991 124.854 153.649 125.152C153.452 125.326 152.824 126.031 152.571 126.035C151.883 126.047 151.657 124.616 151.677 124.136C151.71 123.277 150.382 123.281 150.35 124.136C150.305 125.301 150.873 126.902 152.084 127.33C152.639 127.523 153.094 127.31 153.536 126.971C154.261 126.414 154.941 125.805 155.592 125.16C156.196 124.555 155.254 123.616 154.647 124.217Z" fill="#A6D4E0"/>
<path d="M162.843 124.208C162.444 124.717 162.018 125.265 161.422 125.547C160.819 125.834 159.64 125.729 159.938 124.781C160.195 123.962 158.916 123.612 158.654 124.426C158.268 125.652 159.153 126.862 160.392 127.027C161.841 127.221 162.955 126.201 163.784 125.148C164.307 124.487 163.374 123.535 162.843 124.208Z" fill="#A6D4E0"/>
<path d="M100.216 137.734C100.051 137.456 99.5922 137.274 99.3065 137.496C98.6989 137.968 98.0873 138.436 97.4798 138.907C97.1941 139.125 97.0452 139.48 97.2424 139.819C97.4073 140.097 97.866 140.279 98.1517 140.057C98.7593 139.585 99.3709 139.117 99.9784 138.645C100.26 138.428 100.413 138.073 100.216 137.734Z" fill="#598E9C"/>
<path d="M111.566 132.677C111.401 132.391 110.947 132.225 110.657 132.439C109.921 132.984 109.18 133.524 108.444 134.068C108.154 134.282 108.013 134.645 108.207 134.98C108.372 135.266 108.826 135.431 109.116 135.218C109.852 134.673 110.593 134.133 111.329 133.588C111.619 133.375 111.759 133.012 111.566 132.677Z" fill="#598E9C"/>
<path d="M104.485 137C104.014 137.46 103.463 137.778 102.835 137.96C102.014 138.198 102.364 139.48 103.189 139.246C104.038 139 104.795 138.561 105.426 137.944C106.038 137.343 105.096 136.399 104.485 137Z" fill="#598E9C"/>
<path d="M90.1044 119.027C89.4566 119.551 88.7162 119.962 87.9316 120.249C87.1309 120.535 87.477 121.825 88.2857 121.535C89.2997 121.168 90.209 120.652 91.0459 119.97C91.7098 119.43 90.7643 118.49 90.1044 119.027Z" fill="#598E9C"/>
<path d="M96.1759 114.216C95.343 114.671 94.5141 115.123 93.6813 115.579C92.9288 115.99 93.6008 117.139 94.3532 116.728C95.1861 116.272 96.0149 115.821 96.8478 115.365C97.5962 114.954 96.9283 113.804 96.1759 114.216Z" fill="#598E9C"/>
<path d="M99.3626 118.591C99.2741 118.272 98.8798 117.994 98.5458 118.127C97.9664 118.353 97.387 118.579 96.8036 118.801C96.4696 118.93 96.2363 119.248 96.3409 119.619C96.4294 119.938 96.8237 120.216 97.1577 120.083C97.7371 119.857 98.3165 119.631 98.8999 119.41C99.2338 119.281 99.4632 118.962 99.3626 118.591Z" fill="#598E9C"/>
<path d="M103.149 108.945C102.384 109.405 101.588 109.796 100.751 110.106C99.9542 110.401 100.3 111.687 101.105 111.393C102.05 111.042 102.956 110.619 103.821 110.098C104.553 109.655 103.889 108.502 103.149 108.945Z" fill="#598E9C"/>
<path d="M106.943 112.268C105.869 112.836 104.754 113.272 103.588 113.599C102.763 113.829 103.113 115.111 103.942 114.885C105.217 114.53 106.444 114.042 107.615 113.421C108.372 113.018 107.704 111.869 106.943 112.268Z" fill="#598E9C"/>
<path d="M110.661 106.739C109.784 107.026 108.947 107.409 108.166 107.897C107.442 108.348 108.106 109.502 108.838 109.046C109.526 108.618 110.247 108.276 111.019 108.022C111.824 107.755 111.478 106.469 110.661 106.739Z" fill="#598E9C"/>
<path d="M115.682 109.977C114.998 110.147 114.314 110.316 113.63 110.481C112.801 110.687 113.151 111.97 113.984 111.768C114.668 111.599 115.352 111.429 116.036 111.264C116.865 111.058 116.511 109.772 115.682 109.977Z" fill="#598E9C"/>
<path d="M112.448 116.696C111.615 116.905 110.782 117.119 109.949 117.329C109.12 117.539 109.47 118.825 110.303 118.615C111.136 118.406 111.969 118.192 112.802 117.982C113.626 117.768 113.276 116.486 112.448 116.696Z" fill="#598E9C"/>
<path d="M105.326 119.829C104.521 120.333 103.7 120.805 102.859 121.245C102.099 121.64 102.771 122.789 103.531 122.394C104.372 121.954 105.193 121.482 105.998 120.978C106.718 120.527 106.054 119.373 105.326 119.829Z" fill="#598E9C"/>
<path d="M98.2845 125.16C97.7493 125.624 97.1377 126.007 96.4819 126.277C96.1479 126.414 95.9145 126.721 96.0192 127.096C96.1036 127.41 96.502 127.697 96.8359 127.56C97.7171 127.201 98.5017 126.725 99.222 126.104C99.8698 125.543 98.9282 124.604 98.2845 125.16Z" fill="#598E9C"/>
<path d="M93.2428 130.532C92.6473 130.923 92.0559 131.314 91.4604 131.705C90.7482 132.173 91.4121 133.326 92.1323 132.854C92.7278 132.463 93.3193 132.072 93.9148 131.681C94.627 131.213 93.959 130.06 93.2428 130.532Z" fill="#598E9C"/>
<path d="M107.72 125.717C107.18 125.87 106.637 126.019 106.098 126.172C105.277 126.402 105.623 127.689 106.452 127.459C106.991 127.306 107.535 127.156 108.074 127.003C108.894 126.769 108.544 125.483 107.72 125.717Z" fill="#598E9C"/>
<path d="M113.586 121.148C112.866 121.628 112.109 121.974 111.273 122.2C110.448 122.426 110.798 123.709 111.627 123.487C112.56 123.233 113.449 122.837 114.258 122.301C114.966 121.829 114.302 120.672 113.586 121.148Z" fill="#598E9C"/>
<path d="M119.38 114.897C118.547 115.115 117.718 115.337 116.885 115.554C116.06 115.772 116.411 117.059 117.239 116.841L119.734 116.184C120.563 115.962 120.209 114.675 119.38 114.897Z" fill="#598E9C"/>
<path d="M117.742 123.253L115.421 124.938C114.737 125.438 115.397 126.592 116.093 126.088L118.414 124.402C119.098 123.906 118.439 122.749 117.742 123.253Z" fill="#598E9C"/>
<path d="M111.864 128.479C111.164 128.914 110.436 129.225 109.639 129.427C108.81 129.64 109.16 130.923 109.993 130.713C110.89 130.483 111.747 130.116 112.532 129.628C113.26 129.181 112.596 128.027 111.864 128.479Z" fill="#598E9C"/>
<path d="M104.187 131.149C103.423 131.612 102.63 132.024 101.805 132.358C101.471 132.495 101.242 132.802 101.342 133.177C101.427 133.496 101.829 133.778 102.159 133.641C103.093 133.262 103.994 132.822 104.859 132.298C105.591 131.858 104.923 130.705 104.187 131.149Z" fill="#598E9C"/>
<path d="M172.129 106.493C171.775 108.389 171.377 110.296 170.938 112.211C168.532 122.664 162.984 132.641 155.411 140.827C155.367 141.452 155.331 142.077 155.303 142.702C155.262 143.565 155.254 144.404 155.572 145.174C155.87 145.892 156.59 146.638 157.504 146.638C157.54 146.638 157.576 146.638 157.612 146.634C158.618 146.569 159.29 145.658 159.708 144.98C160.525 143.654 161.197 142.17 161.66 140.702C161.66 141.343 161.684 141.988 161.736 142.625C161.821 143.682 162.171 144.319 162.774 144.521C163.237 144.674 163.796 144.513 164.199 144.101C164.549 143.751 164.738 143.287 164.887 142.879C165.398 141.504 165.744 140.028 165.909 138.577C165.933 138.722 165.957 138.867 165.989 139.012C166.19 139.891 166.766 140.726 167.454 141.137C167.929 141.424 168.44 141.5 168.931 141.363C169.659 141.162 170.234 140.524 170.693 139.42C171.51 137.439 171.783 135.343 172.017 133.185C172.777 126.128 173.031 118.958 172.773 111.865C172.713 110.078 172.592 108.227 172.129 106.493Z" fill="#87C7A7"/>
<path d="M162.758 136.847V138.399C162.758 139.258 164.086 139.258 164.086 138.399V136.847C164.086 135.988 162.758 135.988 162.758 136.847Z" fill="#598E9C"/>
<path d="M159.656 137.79V139.121C159.656 139.98 160.984 139.98 160.984 139.121V137.79C160.988 136.931 159.656 136.931 159.656 137.79Z" fill="#598E9C"/>
<path d="M157.109 141.452V142.783C157.109 143.642 158.437 143.642 158.437 142.783V141.452C158.437 140.593 157.109 140.593 157.109 141.452Z" fill="#598E9C"/>
<path d="M170.954 113.7V115.809C170.954 116.668 172.282 116.668 172.282 115.809V113.7C172.286 112.841 170.954 112.841 170.954 113.7Z" fill="#598E9C"/>
<path d="M170.733 119.248V121.801C170.733 122.66 172.061 122.66 172.061 121.801V119.248C172.061 118.394 170.733 118.389 170.733 119.248Z" fill="#598E9C"/>
<path d="M170.303 125.358C170.254 126.059 170.206 126.761 170.162 127.467C170.106 128.322 171.433 128.318 171.49 127.467C171.538 126.765 171.586 126.063 171.63 125.358C171.687 124.499 170.359 124.503 170.303 125.358Z" fill="#598E9C"/>
<path d="M169.872 130.685C169.49 130.685 169.236 130.991 169.208 131.35C169.168 131.866 169.128 132.387 169.087 132.903C169.059 133.262 169.413 133.568 169.751 133.568C170.134 133.568 170.387 133.262 170.415 132.903C170.455 132.387 170.496 131.866 170.536 131.35C170.564 130.991 170.21 130.685 169.872 130.685Z" fill="#598E9C"/>
<path d="M168.267 123.051C167.945 122.962 167.51 123.16 167.45 123.515C167.317 124.273 167.261 125.031 167.301 125.797C167.345 126.648 168.677 126.656 168.629 125.797C168.593 125.152 168.617 124.507 168.729 123.87C168.794 123.515 168.637 123.152 168.267 123.051Z" fill="#598E9C"/>
<path d="M166.191 131.35V132.681C166.191 133.54 167.518 133.54 167.518 132.681V131.35C167.522 130.491 166.191 130.491 166.191 131.35Z" fill="#598E9C"/>
<path d="M167.743 136.79V138.456C167.743 139.315 169.071 139.315 169.071 138.456V136.79C169.071 135.931 167.743 135.931 167.743 136.79Z" fill="#598E9C"/>
<path d="M164.416 131.685C164.388 131.326 164.131 131.02 163.752 131.02C163.414 131.02 163.06 131.326 163.088 131.685C163.125 132.149 163.104 132.604 163.008 133.064C162.935 133.415 163.113 133.786 163.471 133.883C163.801 133.976 164.215 133.77 164.287 133.419C164.412 132.842 164.46 132.266 164.416 131.685Z" fill="#598E9C"/>
<path d="M176.221 105.586C176.559 107.389 176.933 109.199 177.356 111.022C179.641 120.954 184.912 130.431 192.106 138.21C192.147 138.803 192.183 139.399 192.211 139.988C192.247 140.811 192.255 141.605 191.958 142.335C191.676 143.017 190.988 143.722 190.123 143.722C190.087 143.722 190.054 143.722 190.018 143.718C189.061 143.658 188.425 142.791 188.027 142.146C187.25 140.883 186.614 139.476 186.172 138.081C186.172 138.69 186.148 139.303 186.099 139.908C186.019 140.912 185.685 141.517 185.113 141.71C184.675 141.855 184.144 141.702 183.762 141.315C183.432 140.98 183.251 140.541 183.106 140.154C182.619 138.847 182.293 137.444 182.132 136.065C182.112 136.206 182.084 136.343 182.056 136.48C181.866 137.315 181.319 138.109 180.663 138.5C180.209 138.77 179.726 138.847 179.259 138.714C178.567 138.52 178.02 137.92 177.585 136.867C176.809 134.988 176.547 132.996 176.33 130.947C175.61 124.245 175.368 117.43 175.61 110.695C175.666 108.994 175.779 107.235 176.221 105.586Z" fill="#D9A4D1"/>
<path d="M185.122 134.423V135.899C185.122 136.714 183.858 136.714 183.858 135.899V134.423C183.862 133.609 185.122 133.604 185.122 134.423Z" fill="#B98BB2"/>
<path d="M188.071 135.318V136.585C188.071 137.399 186.807 137.399 186.807 136.585V135.318C186.807 134.504 188.071 134.504 188.071 135.318Z" fill="#B98BB2"/>
<path d="M190.489 138.799V140.065C190.489 140.879 189.226 140.879 189.226 140.065V138.799C189.226 137.984 190.489 137.984 190.489 138.799Z" fill="#B98BB2"/>
<path d="M177.336 112.433V114.438C177.336 115.252 176.073 115.252 176.073 114.438V112.433C176.073 111.619 177.336 111.619 177.336 112.433Z" fill="#B98BB2"/>
<path d="M177.545 117.704V120.128C177.545 120.942 176.282 120.942 176.282 120.128V117.704C176.286 116.893 177.545 116.889 177.545 117.704Z" fill="#B98BB2"/>
<path d="M177.96 123.507C178.004 124.172 178.048 124.842 178.096 125.507C178.153 126.322 176.889 126.318 176.833 125.507C176.789 124.842 176.744 124.172 176.696 123.507C176.64 122.692 177.903 122.696 177.96 123.507Z" fill="#B98BB2"/>
<path d="M178.366 128.572C178.728 128.572 178.969 128.862 178.998 129.205C179.034 129.697 179.074 130.189 179.11 130.681C179.138 131.024 178.8 131.314 178.479 131.314C178.116 131.314 177.875 131.024 177.847 130.681C177.811 130.189 177.77 129.697 177.734 129.205C177.71 128.862 178.044 128.572 178.366 128.572Z" fill="#B98BB2"/>
<path d="M179.887 121.317C180.193 121.233 180.603 121.422 180.664 121.761C180.788 122.483 180.845 123.2 180.804 123.93C180.76 124.741 179.497 124.745 179.541 123.93C179.573 123.317 179.549 122.704 179.444 122.1C179.388 121.761 179.537 121.414 179.887 121.317Z" fill="#B98BB2"/>
<path d="M181.862 129.201V130.467C181.862 131.282 180.599 131.282 180.599 130.467V129.201C180.599 128.386 181.862 128.386 181.862 129.201Z" fill="#B98BB2"/>
<path d="M180.386 134.371V135.952C180.386 136.766 179.122 136.766 179.122 135.952V134.371C179.126 133.556 180.386 133.552 180.386 134.371Z" fill="#B98BB2"/>
<path d="M183.548 129.52C183.573 129.177 183.822 128.886 184.18 128.886C184.502 128.886 184.836 129.177 184.812 129.52C184.78 129.963 184.796 130.395 184.888 130.83C184.957 131.165 184.792 131.516 184.446 131.608C184.132 131.693 183.742 131.504 183.669 131.165C183.552 130.62 183.504 130.072 183.548 129.52Z" fill="#B98BB2"/>
<path d="M212.357 163.922C212.293 163.684 212.104 163.515 211.882 163.458L211.629 155.643C211.617 155.276 211.303 154.978 210.945 154.998C210.579 155.01 210.289 155.316 210.301 155.683L210.543 163.192L206.857 165.168C206.535 165.342 206.41 165.745 206.583 166.071C206.704 166.297 206.933 166.422 207.171 166.422C207.275 166.422 207.384 166.398 207.485 166.346L209.702 165.156L208.358 167.539C208.177 167.858 208.289 168.265 208.607 168.447C208.712 168.507 208.824 168.531 208.933 168.531C209.166 168.531 209.388 168.41 209.512 168.193L211.291 165.043L212.031 167.729C212.112 168.023 212.381 168.217 212.671 168.217C212.731 168.217 212.788 168.209 212.848 168.193C213.202 168.096 213.407 167.729 213.311 167.374L212.357 163.922Z" fill="#D9A4D1"/>
<path d="M230.146 167.374L229.192 163.918C229.128 163.68 228.938 163.511 228.717 163.454L228.464 155.639C228.452 155.272 228.134 154.973 227.78 154.994C227.414 155.006 227.124 155.312 227.136 155.679L227.377 163.188L223.692 165.164C223.37 165.337 223.245 165.741 223.418 166.067C223.539 166.293 223.768 166.418 224.006 166.418C224.11 166.418 224.219 166.394 224.319 166.341L226.536 165.152L225.193 167.535C225.011 167.854 225.124 168.261 225.442 168.442C225.547 168.503 225.659 168.527 225.768 168.527C226.001 168.527 226.223 168.406 226.347 168.188L228.126 165.039L228.866 167.725C228.947 168.019 229.216 168.213 229.506 168.213C229.566 168.213 229.623 168.204 229.683 168.188C230.033 168.096 230.242 167.729 230.146 167.374Z" fill="#D9A4D1"/>
<path d="M203.352 48.589C203.352 48.589 200.242 27.3009 216.96 20.4414C233.678 13.5819 244.755 19.9414 249.382 26.1153C248.376 24.7724 243.343 25.0426 241.886 25.1878C238.229 25.5588 234.62 26.7202 231.884 29.1317C225.925 34.3862 226.918 42.1852 230.926 47.7503L203.352 48.589Z" fill="#FBF5EB"/>
<path d="M246.167 25.4821C245.604 23.0384 247.37 20.5422 250.119 19.905C252.863 19.2679 255.55 20.7317 256.114 23.1755C256.677 25.6193 254.911 28.1154 252.163 28.7526C249.414 29.3857 246.731 27.9259 246.167 25.4821Z" fill="#FA6E5A"/>
<path d="M203.791 37.5922C203.441 39.3705 203.26 41.0723 203.179 42.5765C211.118 39.7133 220.05 39.2738 228.017 41.3304C227.667 39.7294 227.582 38.1003 227.816 36.4993C220.034 34.8419 211.572 35.2291 203.791 37.5922Z" fill="#FA6E5A"/>
<path d="M208.35 26.9742C207.09 28.6195 206.121 30.3898 205.388 32.1843C213.206 30.2689 221.511 30.6197 228.846 33.1078C229.522 31.7045 230.499 30.3697 231.847 29.172C224.545 26.5024 216.312 25.7402 208.35 26.9742Z" fill="#FA6E5A"/>
<path d="M241.403 25.2523C237.484 21.6673 232.535 19.0784 227.132 17.6952C224.017 18.0702 220.625 18.9372 216.96 20.4414C216.389 20.6753 215.841 20.9334 215.318 21.1995C222.605 20.6672 230.029 22.7642 235.573 26.8049C237.396 25.9862 239.388 25.4943 241.403 25.2523Z" fill="#FA6E5A"/>
<path d="M280.927 120.805C280.662 120.305 280.022 120.027 279.37 120.124C278.815 120.208 278.336 120.515 277.902 120.833C276.666 121.745 275.584 122.858 274.534 123.938L270.257 128.338C272.265 125.943 274.059 123.37 275.608 120.652C276.514 119.059 277.35 117.333 277.322 115.506C277.31 114.809 277.165 114.256 276.884 113.817C276.514 113.248 275.898 112.913 275.302 112.97C274.538 113.038 274.003 113.679 273.625 114.232C271.725 116.99 270.808 120.269 269.919 123.442C269.452 125.1 268.973 126.798 268.358 128.427C268.953 126.568 269.484 124.672 269.822 122.741C270.466 119.075 270.325 115.776 269.396 112.929C269.283 112.583 269.118 112.204 268.756 112.042C268.189 111.788 267.617 112.236 267.304 112.7C266.189 114.321 266.261 116.389 266.442 118.547L267.392 129.786C263.984 130.455 260.689 127.725 259.276 126.346C255.015 122.18 254.758 115.74 254.529 110.062L254.508 109.59C254.162 101.154 253.784 94.077 253.044 86.9554C251.463 71.6839 248.119 54.9001 235.32 46.1776C230.572 42.9434 224.5 41.1852 217.765 41.0965C208.599 40.9634 200.093 44 193.165 49.8513C186.618 55.376 181.778 63.0904 179.163 72.1637C176.386 81.8057 176.068 92.0203 176.105 99.8436C176.125 104.453 176.282 108.235 176.596 111.748C177.026 116.551 177.754 120.805 178.825 124.753C183.198 140.879 195.494 153.711 210.913 158.244C215.548 159.607 220.183 160.284 224.75 160.284C232.045 160.284 239.158 158.554 245.781 155.119C257.003 149.304 264.966 141.057 268.933 131.185C273.862 130.334 278.344 127.14 280.682 122.688C280.952 122.184 281.265 121.438 280.927 120.805Z" fill="#ECC6E8"/>
<path d="M253.132 121.608C251.455 117.297 249.423 113.966 246.924 111.413C243.874 108.304 240.12 106.433 236.346 106.155C232.109 105.844 227.953 107.699 225.748 110.881C222.899 114.994 223.651 120.281 224.356 123.063C225.917 129.253 229.787 134.927 234.978 138.625C235.976 139.335 237.183 140.101 238.579 140.387C239.038 140.48 239.492 140.512 239.931 140.488C240.921 140.432 241.818 140.073 242.466 139.46C244.156 137.859 242.208 133.883 240.937 131.774C241.214 131.996 243.073 133.403 243.371 133.601C244.228 134.165 245.009 134.46 245.757 134.504C246.735 134.564 247.636 134.165 248.111 133.463C248.936 132.25 248.312 130.653 247.68 129.395L245.504 125.737C245.958 126.233 247.326 127.709 247.91 128.052C249.415 128.935 251.72 129.072 253.028 127.588C254.162 126.302 254.199 124.346 253.132 121.608Z" fill="#D9A4D1"/>
<path d="M227.321 83.8582C227.236 82.9307 226.637 82.0475 225.715 81.4951C225.003 81.0716 224.106 80.8337 222.979 80.7652C221.615 80.6845 220.259 80.8499 218.956 81.2491C218.429 81.4104 217.757 81.6564 217.206 82.1242C216.634 82.6081 216.3 83.2815 216.308 83.9227C216.32 84.8784 217.032 85.6124 217.692 85.9793C218.372 86.3544 219.101 86.6609 219.857 86.8867C220.859 87.1851 221.909 87.3343 222.939 87.3343C223.245 87.3343 223.551 87.3222 223.852 87.294C225.655 87.1327 227.486 85.7132 227.321 83.8582Z" fill="#D9A4D1"/>
<path d="M192.211 77.5795C191.579 77.2044 190.787 76.9907 189.785 76.9342C188.578 76.8616 187.379 77.0068 186.224 77.3617C185.757 77.5069 185.158 77.7246 184.671 78.1359C184.16 78.5674 183.862 79.1683 183.87 79.7409C183.882 80.5958 184.514 81.2532 185.105 81.5798C185.709 81.9145 186.353 82.1847 187.021 82.3823C187.906 82.6444 188.835 82.7815 189.749 82.7815C190.018 82.7815 190.292 82.7694 190.557 82.7452C192.167 82.6001 193.792 81.3378 193.643 79.6845C193.567 78.8578 193.032 78.0714 192.211 77.5795Z" fill="#D9A4D1"/>
<path d="M202.037 67.2277C201.61 67.0987 201.163 67.3366 201.031 67.76C200.431 69.7118 198.769 71.3007 196.798 71.8128C196.029 72.0104 195.325 72.0145 194.762 71.8209C193.977 71.5507 193.289 70.8168 192.963 69.9054C192.666 69.0706 192.633 68.0464 192.867 66.9455C192.959 66.5099 192.682 66.0825 192.247 65.9897C191.813 65.897 191.386 66.1752 191.294 66.6107C190.996 68.006 191.048 69.3328 191.447 70.4498C191.937 71.837 192.984 72.9218 194.243 73.3492C194.694 73.5025 195.172 73.5791 195.683 73.5791C196.166 73.5791 196.673 73.5106 197.2 73.3734C199.703 72.7282 201.807 70.7079 202.568 68.2359C202.701 67.8125 202.459 67.3608 202.037 67.2277Z" fill="#3F4553"/>
<path d="M227.542 69.7642C227.51 69.3206 227.128 68.9859 226.681 69.0182C226.239 69.0504 225.905 69.4376 225.937 69.8812C226.017 70.9821 225.418 72.1798 224.408 72.9339C223.478 73.6275 222.191 73.9944 220.791 73.9702C220.034 73.9581 219.487 73.817 219.121 73.5468C218.662 73.2081 218.364 72.5548 218.324 71.7967C218.284 71.0103 218.489 70.1755 218.686 69.369C218.791 68.9375 218.529 68.498 218.099 68.3931C217.668 68.2883 217.23 68.5504 217.125 68.9819C216.908 69.861 216.662 70.853 216.719 71.8813C216.787 73.1355 217.314 74.2162 218.167 74.8453C218.811 75.3212 219.66 75.5591 220.762 75.5792C220.815 75.5792 220.871 75.5792 220.923 75.5792C222.621 75.5792 224.195 75.0994 225.369 74.2243C226.826 73.1395 227.659 71.4257 227.542 69.7642Z" fill="#3F4553"/>
<path d="M206.261 88.0281C206.193 87.8829 206.133 87.7458 206.076 87.6167C205.646 86.6166 205.107 85.6649 204.467 84.7979C203.461 83.4268 202.387 82.7171 201.28 82.6929C200.564 82.6768 199.88 82.955 199.248 83.2575C198.202 83.7575 197.233 84.4874 196.299 85.1891C195.84 85.5319 195.366 85.8908 194.895 86.2053C192.662 87.7135 190.517 89.3991 188.525 91.2179C188.071 91.6332 187.938 92.0728 188.167 92.3954C188.425 92.7543 188.932 92.6696 189.125 92.6373L194.742 91.6856C193.627 92.5607 192.617 93.5043 191.559 94.4964C191.233 94.7988 190.911 95.1053 190.582 95.4077C190.304 95.6658 190.05 95.9562 190.075 96.3352C190.111 96.8554 190.646 97.1297 191.097 97.2063C191.29 97.2385 191.483 97.2547 191.676 97.2547C192.71 97.2547 193.716 96.8272 194.549 96.4723L203.139 92.8067C203.328 92.726 203.521 92.6454 203.715 92.5647C204.407 92.2744 205.123 91.976 205.791 91.613C206.229 91.3751 206.519 91.0969 206.684 90.7622C206.7 90.7299 206.716 90.6936 206.728 90.6614C207.078 89.7903 206.628 88.8144 206.261 88.0281Z" fill="#3F4553"/>
<path d="M215.166 136C215.146 136.75 215.041 138.722 213.802 138.315C213.142 138.097 212.667 137.319 212.043 136.984C211.291 136.581 210.619 137.73 211.371 138.133C212.482 138.73 213.178 140.073 214.643 139.609C216.192 139.121 216.453 137.399 216.489 136C216.518 135.141 215.19 135.141 215.166 136Z" fill="#D9A4D1"/>
<path d="M208.857 148.941C208.752 149.4 208.651 149.86 208.547 150.324C208.499 150.55 208.491 150.888 208.374 151.09C208.318 151.191 208.326 151.231 208.338 151.247C208.322 151.243 208.289 151.239 208.221 151.239C207.915 151.247 207.344 150.824 207.082 150.691C206.668 150.481 206.261 150.259 205.855 150.033C205.107 149.614 204.439 150.763 205.183 151.183C205.831 151.546 206.487 151.892 207.159 152.207C207.634 152.433 208.189 152.772 208.74 152.61C209.211 152.473 209.468 152.058 209.609 151.614C209.846 150.868 209.963 150.058 210.132 149.291C210.325 148.461 209.046 148.102 208.857 148.941Z" fill="#D9A4D1"/>
<path d="M217.149 144.565C216.989 143.722 215.709 144.081 215.866 144.92C215.975 145.501 216.252 146.84 215.407 147.057C215.109 147.134 214.776 146.884 214.534 146.747C214.204 146.557 213.878 146.384 213.516 146.263C212.703 145.993 212.353 147.275 213.162 147.549C213.733 147.739 214.192 148.17 214.78 148.328C215.343 148.477 215.91 148.38 216.381 148.033C217.5 147.202 217.379 145.775 217.149 144.565Z" fill="#D9A4D1"/>
<path d="M218.9 152.268C218.827 151.421 217.5 151.413 217.572 152.268C217.604 152.634 217.616 152.997 217.596 153.364C217.576 153.707 217.471 154.042 217.435 154.377C217.331 154.308 217.214 154.235 217.186 154.211C216.872 153.985 216.554 153.76 216.24 153.534C215.544 153.034 214.88 154.187 215.568 154.683C216.252 155.175 217.504 156.502 218.349 155.623C218.687 155.272 218.759 154.655 218.831 154.195C218.932 153.554 218.952 152.917 218.9 152.268Z" fill="#D9A4D1"/>
<path d="M184.659 112.982C184.289 113.768 183.633 115.309 182.494 114.986C181.669 114.752 181.094 113.361 180.671 112.7C180.213 111.982 179.058 112.647 179.525 113.373C180.253 114.51 181.042 116.264 182.599 116.349C184.248 116.438 185.19 114.962 185.806 113.655C186.172 112.885 185.025 112.208 184.659 112.982Z" fill="#D9A4D1"/>
<path d="M194.734 111.502C194.255 112.324 193.66 113.325 192.815 113.833C191.817 114.434 190.682 112.716 190.071 112.078C189.475 111.457 188.538 112.401 189.129 113.022C190.067 113.998 191.157 115.736 192.742 115.317C194.179 114.938 195.181 113.373 195.881 112.179C196.315 111.433 195.168 110.764 194.734 111.502Z" fill="#D9A4D1"/>
<path d="M203.831 110.002C203.469 110.772 203.123 112.026 202.431 112.587C201.912 113.006 201.514 112.397 201.184 112.014C200.826 111.595 200.471 111.175 200.117 110.76C199.562 110.106 198.625 111.05 199.176 111.703C199.965 112.635 200.986 114.454 202.459 114.075C203.875 113.708 204.431 111.828 204.974 110.675C205.344 109.905 204.197 109.227 203.831 110.002Z" fill="#D9A4D1"/>
<path d="M213.206 108.994C212.864 109.473 212.522 109.949 212.18 110.429C211.931 110.776 211.52 111.663 211.154 111.865C210.124 112.433 209.098 110.808 208.833 110.046C208.551 109.244 207.267 109.586 207.549 110.401C208.02 111.748 209.187 113.228 210.716 113.405C211.392 113.482 211.822 113.147 212.22 112.647C212.977 111.695 213.645 110.659 214.353 109.671C214.852 108.969 213.701 108.304 213.206 108.994Z" fill="#D9A4D1"/>
<path d="M188.634 121.954C188.542 122.809 188.352 124.571 187.129 124.547C186.317 124.531 185.25 123.358 184.639 122.898C183.955 122.382 183.291 123.539 183.967 124.047C185.118 124.91 186.445 126.362 188.014 125.684C189.511 125.039 189.809 123.406 189.966 121.954C190.054 121.103 188.723 121.112 188.634 121.954Z" fill="#D9A4D1"/>
<path d="M200.097 119.95C199.908 120.878 199.558 122.095 198.798 122.729C197.687 123.652 196.673 122.16 196.142 121.353C195.672 120.64 194.521 121.309 194.996 122.027C195.8 123.249 196.991 124.696 198.653 124.297C200.287 123.906 201.087 121.765 201.385 120.305C201.55 119.466 200.266 119.107 200.097 119.95Z" fill="#D9A4D1"/>
<path d="M211.633 118.644C211.231 119.49 210.824 120.575 209.939 120.95C209.227 121.253 208.849 120.91 208.31 120.406C207.935 120.059 207.654 119.66 207.396 119.22C206.962 118.482 205.815 119.152 206.25 119.894C206.95 121.091 208.261 122.563 209.778 122.547C211.372 122.531 212.204 120.535 212.784 119.313C213.146 118.547 211.999 117.869 211.633 118.644Z" fill="#D9A4D1"/>
<path d="M192.799 132.806C192.533 133.25 192.271 133.693 192.006 134.137C191.845 134.407 191.487 135.33 191.213 135.468C190.388 135.875 189.214 134.338 188.799 133.802C188.276 133.125 187.343 134.076 187.858 134.746C188.55 135.641 190.054 137.234 191.342 136.988C191.893 136.883 192.187 136.423 192.457 135.976C192.959 135.149 193.446 134.314 193.941 133.483C194.384 132.741 193.237 132.068 192.799 132.806Z" fill="#D9A4D1"/>
<path d="M201.256 130.447C201.051 131.241 200.399 133.681 199.208 133.504C198.512 133.399 197.832 132.29 197.277 131.875C196.589 131.362 195.925 132.52 196.605 133.024C197.675 133.818 198.419 135.274 199.993 134.722C201.498 134.193 202.182 132.193 202.536 130.802C202.749 129.971 201.469 129.616 201.256 130.447Z" fill="#D9A4D1"/>
<path d="M211.267 127.039C210.848 127.923 210.494 129.169 209.843 129.899C209.328 130.475 208.973 130.213 208.519 129.729C208.133 129.318 207.75 128.903 207.364 128.487C206.781 127.858 205.843 128.802 206.422 129.431C207.284 130.354 208.318 132.028 209.802 131.548C211.283 131.068 211.822 128.967 212.414 127.713C212.78 126.939 211.633 126.261 211.267 127.039Z" fill="#D9A4D1"/>
<path d="M199.341 142.335C199.16 142.912 198.971 143.484 198.778 144.057C198.709 144.263 198.661 144.674 198.512 144.835C198.005 145.392 197.732 144.993 197.422 144.626C196.891 144.005 196.5 143.388 195.655 143.19C194.822 142.992 194.468 144.279 195.301 144.476C196.005 144.642 196.295 145.452 196.794 145.908C197.245 146.319 197.848 146.634 198.476 146.537C199.087 146.444 199.466 145.997 199.695 145.452C200.073 144.565 200.331 143.605 200.624 142.686C200.882 141.871 199.602 141.521 199.341 142.335Z" fill="#D9A4D1"/>
<path d="M207.879 139.182C207.432 139.932 207.465 140.879 207.014 141.597C206.612 142.238 205.996 141.855 205.473 141.537C205.014 141.258 204.556 140.976 204.097 140.698C203.365 140.25 202.697 141.404 203.425 141.847C204.487 142.496 205.924 143.811 207.243 143.17C208.571 142.525 208.378 140.948 209.026 139.851C209.464 139.117 208.318 138.444 207.879 139.182Z" fill="#D9A4D1"/>
<path d="M242.071 129.548C241.625 129.221 241.178 128.895 240.727 128.568C240.438 128.354 239.987 128.519 239.818 128.806C239.621 129.145 239.766 129.503 240.056 129.717C240.502 130.044 240.949 130.37 241.399 130.697C241.689 130.911 242.14 130.745 242.309 130.459C242.51 130.12 242.365 129.762 242.071 129.548Z" fill="#B98BB2"/>
<path d="M246.501 131.802C246.131 131.266 245.697 130.822 245.178 130.431C244.892 130.213 244.433 130.383 244.268 130.669C244.071 131.008 244.22 131.363 244.506 131.58C244.779 131.786 245.149 132.177 245.355 132.471C245.56 132.766 245.938 132.903 246.264 132.709C246.554 132.54 246.706 132.096 246.501 131.802Z" fill="#B98BB2"/>
<path d="M243.999 125.677C243.415 125.152 242.828 124.628 242.244 124.1C241.609 123.527 240.667 124.467 241.303 125.043C241.886 125.568 242.474 126.092 243.057 126.62C243.693 127.189 244.638 126.249 243.999 125.677Z" fill="#B98BB2"/>
<path d="M240.39 109.264C239.826 108.897 239.315 108.437 238.905 107.897C238.688 107.61 238.333 107.461 237.995 107.659C237.714 107.824 237.541 108.28 237.758 108.57C238.309 109.3 238.949 109.913 239.718 110.413C240.438 110.885 241.106 109.732 240.39 109.264Z" fill="#B98BB2"/>
<path d="M245.866 113.446C245.334 112.865 244.84 112.252 244.385 111.607C244.18 111.312 243.805 111.175 243.476 111.369C243.186 111.538 243.029 111.986 243.238 112.28C243.757 113.018 244.316 113.724 244.928 114.389C245.503 115.018 246.441 114.075 245.866 113.446Z" fill="#B98BB2"/>
<path d="M246.711 118.918C246.244 118.313 245.822 117.672 245.431 117.014C244.997 116.276 243.846 116.946 244.284 117.688C244.731 118.446 245.23 119.164 245.769 119.861C245.991 120.148 246.477 120.091 246.711 119.861C246.992 119.575 246.932 119.2 246.711 118.918Z" fill="#B98BB2"/>
<path d="M251.289 120.236C250.794 119.507 250.304 118.773 249.809 118.043C249.334 117.337 248.179 118.002 248.662 118.716C249.157 119.446 249.648 120.18 250.143 120.91C250.621 121.616 251.772 120.95 251.289 120.236Z" fill="#B98BB2"/>
<path d="M251.145 125.37C250.646 124.688 250.114 124.035 249.531 123.422C248.94 122.801 248.002 123.745 248.59 124.366C249.092 124.894 249.563 125.451 249.994 126.043C250.207 126.334 250.569 126.479 250.903 126.281C251.193 126.112 251.358 125.66 251.145 125.37Z" fill="#B98BB2"/>
<path d="M236.342 109.667L234.793 108.223C234.165 107.639 233.223 108.578 233.851 109.167C234.366 109.647 234.885 110.131 235.4 110.611C236.028 111.191 236.969 110.252 236.342 109.667Z" fill="#B98BB2"/>
<path d="M240.989 114.78C240.462 114.159 239.939 113.534 239.412 112.913C239.178 112.639 238.712 112.675 238.47 112.913C238.201 113.188 238.237 113.579 238.47 113.857L240.048 115.724C240.281 115.998 240.748 115.962 240.989 115.724C241.259 115.454 241.222 115.059 240.989 114.78Z" fill="#B98BB2"/>
<path d="M245.158 121.333C244.61 120.7 244.063 120.063 243.516 119.43C242.957 118.781 242.019 119.724 242.574 120.374C243.122 121.007 243.669 121.644 244.216 122.277C244.775 122.926 245.713 121.979 245.158 121.333Z" fill="#B98BB2"/>
<path d="M232.471 110.905C232.02 110.28 231.57 109.659 231.119 109.034C230.91 108.744 230.54 108.602 230.21 108.796C229.924 108.965 229.759 109.413 229.972 109.707C230.423 110.332 230.874 110.953 231.324 111.579C231.534 111.869 231.904 112.01 232.234 111.816C232.519 111.647 232.684 111.195 232.471 110.905Z" fill="#B98BB2"/>
<path d="M229.321 113.494C228.934 112.925 228.516 112.381 228.061 111.865C227.824 111.595 227.365 111.623 227.12 111.865C226.854 112.131 226.882 112.538 227.12 112.808C227.498 113.24 227.848 113.691 228.17 114.167C228.371 114.466 228.753 114.595 229.079 114.405C229.377 114.232 229.522 113.792 229.321 113.494Z" fill="#B98BB2"/>
<path d="M227.381 117.543C226.822 116.845 226.259 116.147 225.699 115.45C225.474 115.167 224.995 115.216 224.758 115.45C224.48 115.728 224.532 116.111 224.758 116.393C225.317 117.091 225.88 117.789 226.44 118.486C226.665 118.769 227.144 118.72 227.381 118.486C227.659 118.204 227.607 117.821 227.381 117.543Z" fill="#B98BB2"/>
<path d="M227.924 123.785C227.542 123.277 227.16 122.769 226.782 122.257C226.564 121.971 226.206 121.821 225.872 122.019C225.591 122.184 225.418 122.64 225.635 122.93C226.017 123.438 226.399 123.947 226.778 124.459C226.995 124.745 227.353 124.894 227.687 124.697C227.969 124.531 228.142 124.076 227.924 123.785Z" fill="#B98BB2"/>
<path d="M232.656 118.918C232.097 118.45 231.586 117.922 231.159 117.333C230.95 117.043 230.58 116.897 230.25 117.095C229.964 117.264 229.799 117.712 230.013 118.006C230.512 118.692 231.071 119.317 231.719 119.861C231.992 120.091 232.391 120.132 232.66 119.861C232.894 119.624 232.93 119.148 232.656 118.918Z" fill="#B98BB2"/>
<path d="M236.088 115.926C235.714 115.337 235.34 114.748 234.97 114.155C234.511 113.433 233.36 114.103 233.823 114.829C234.197 115.417 234.571 116.006 234.942 116.599C235.396 117.321 236.547 116.651 236.088 115.926Z" fill="#B98BB2"/>
<path d="M233.151 125.439C232.708 124.773 232.262 124.108 231.819 123.442C231.344 122.733 230.194 123.398 230.672 124.116C231.115 124.781 231.562 125.447 232.004 126.112C232.475 126.822 233.626 126.156 233.151 125.439Z" fill="#B98BB2"/>
<path d="M232.121 131.326C231.831 130.951 231.542 130.576 231.252 130.201C231.031 129.915 230.544 129.971 230.31 130.201C230.029 130.483 230.089 130.858 230.31 131.145C230.6 131.52 230.89 131.895 231.179 132.27C231.401 132.556 231.888 132.5 232.121 132.27C232.399 131.988 232.342 131.613 232.121 131.326Z" fill="#B98BB2"/>
<path d="M237.372 124.092L236.165 122.418C235.956 122.128 235.585 121.987 235.255 122.18C234.97 122.35 234.805 122.797 235.018 123.092C235.42 123.648 235.823 124.209 236.225 124.765C236.434 125.055 236.804 125.197 237.134 125.003C237.42 124.834 237.585 124.386 237.372 124.092Z" fill="#B98BB2"/>
<path d="M240.333 120.644C239.875 120.027 239.42 119.406 238.961 118.789C238.748 118.498 238.386 118.353 238.052 118.551C237.766 118.716 237.597 119.172 237.815 119.462C238.273 120.079 238.728 120.7 239.187 121.317C239.4 121.608 239.762 121.753 240.096 121.555C240.378 121.39 240.547 120.934 240.333 120.644Z" fill="#B98BB2"/>
<path d="M237.303 129.673C236.821 129.399 236.414 129.036 236.108 128.572C235.911 128.273 235.521 128.144 235.199 128.334C234.901 128.507 234.76 128.943 234.962 129.245C235.392 129.899 235.955 130.439 236.635 130.826C237.376 131.245 238.048 130.096 237.303 129.673Z" fill="#B98BB2"/>
<path d="M236.973 135.568C236.475 135.145 236.02 134.669 235.646 134.133C235.44 133.838 235.066 133.701 234.736 133.895C234.447 134.064 234.29 134.512 234.499 134.806C234.942 135.435 235.449 136.012 236.036 136.512C236.31 136.746 236.708 136.782 236.977 136.512C237.215 136.27 237.251 135.802 236.973 135.568Z" fill="#B98BB2"/>
<path d="M240.848 136.548C240.908 136.593 240.764 136.48 240.752 136.472C240.687 136.415 240.623 136.355 240.562 136.294C240.458 136.189 240.365 136.077 240.313 136.004C240.104 135.714 239.734 135.573 239.404 135.766C239.114 135.935 238.957 136.383 239.166 136.677C239.452 137.081 239.778 137.407 240.176 137.698C240.466 137.911 240.917 137.746 241.085 137.46C241.283 137.121 241.138 136.762 240.848 136.548Z" fill="#B98BB2"/>
<path d="M174.149 34.2974C172.443 35.6564 170.645 36.8581 168.762 37.9388C169.514 34.3417 170.979 30.9302 171.55 27.2887C171.614 26.8774 171.184 26.3935 170.766 26.6878C168.633 28.1839 166.625 29.8131 164.722 31.5996C164.219 32.0714 164.984 32.8174 165.483 32.3496C166.999 30.9261 168.593 29.6034 170.263 28.3694C169.506 31.898 168.078 35.2531 167.506 38.8341C167.434 39.2898 167.856 39.6688 168.291 39.4349C170.633 38.1647 172.822 36.7049 174.906 35.0475C175.449 34.62 174.684 33.874 174.149 34.2974Z" fill="#DCC272"/>
<path d="M175.119 27.5952C174.483 28.196 173.848 28.8009 173.212 29.4018C172.713 29.8736 173.473 30.6236 173.972 30.1518L175.88 28.3452C176.378 27.8734 175.618 27.1233 175.119 27.5952Z" fill="#DCC272"/>
<path d="M185.641 21.7075C183.882 23.1673 182.124 24.6312 180.366 26.091C180.201 21.6551 180.032 17.2152 179.867 12.7793C179.851 12.3761 179.424 12.1019 179.062 12.3156C177.075 13.4971 175.272 14.844 173.57 16.4087C173.063 16.8724 173.823 17.6225 174.33 17.1588C175.739 15.8683 177.235 14.7352 178.837 13.723C179.006 18.2113 179.175 22.6996 179.34 27.1879C179.36 27.6839 179.899 27.8573 180.253 27.5629C182.301 25.8611 184.349 24.1553 186.397 22.4536C186.928 22.0181 186.168 21.272 185.641 21.7075Z" fill="#DCC272"/>
<path d="M186.184 12.7552L183.106 15.6385C182.603 16.1103 183.363 16.8563 183.866 16.3885C184.892 15.4288 185.918 14.465 186.944 13.5052C187.447 13.0334 186.687 12.2833 186.184 12.7552Z" fill="#DCC272"/>
<path d="M199.953 10.0654C197.245 11.9527 194.662 13.9851 192.183 16.1587C192.469 10.9244 193.105 5.72633 193.773 0.528294C193.825 0.108902 193.286 -0.120957 192.968 0.0645432C190.735 1.39531 188.687 2.91963 186.767 4.67382C186.261 5.13757 187.021 5.88764 187.528 5.42389C189.109 3.98021 190.779 2.71397 192.574 1.57677C191.906 6.83127 191.282 12.0898 191.053 17.3886C191.032 17.8847 191.64 18.0621 191.966 17.7637C194.67 15.3239 197.506 13.0657 200.496 10.9849C201.055 10.5977 200.52 9.67426 199.953 10.0654Z" fill="#DCC272"/>
</g>
<defs>
<clipPath id="clip0">
<rect width="369" height="229" fill="white"/>
</clipPath>
</defs>
</svg>
