<svg width="414" height="896" viewBox="0 0 414 896" fill="none" xmlns="http://www.w3.org/2000/svg">
<g clip-path="url(#clip0)">
<rect width="414" height="896" fill="#03174C"/>
<path d="M223.975 71.1945C249.43 35.0578 257.137 -0.575993 258.371 -2.63062H421.146V294.925C297.71 342.707 230.05 266.707 211.65 222.734C171.847 154.288 208.435 94.2613 223.975 71.1945Z" fill="#1F265E"/>
<path d="M423.037 -0.0801346V185.165C316.071 129.013 328.291 2.08892 328.524 -0.0801346C328.757 -2.24919 423.037 -0.0801346 423.037 -0.0801346Z" fill="#2B3166"/>
<g filter="url(#filter0_f)">
<path d="M58.5432 415.944C68.8514 349.555 30.0756 284.707 -33.3033 262.349C-40.3164 259.874 -44.2828 252.46 -42.4659 245.248L-35.0601 215.826C-33.0042 207.667 -24.4333 203.021 -16.4507 205.696C3.8992 212.517 22.8356 222.492 40.0025 235.454C60.5695 250.983 77.7291 270.111 91.006 292.312C104.283 314.514 113.012 338.68 116.954 364.139C120.243 385.394 120.071 406.785 116.444 427.934C115.02 436.227 106.868 441.576 98.7042 439.523L69.272 432.113C62.0579 430.295 57.4004 423.289 58.5432 415.944Z" fill="#1E255E"/>
</g>
<g filter="url(#filter1_f)">
<path d="M357.635 416.772C349.805 483.499 390.967 546.858 455.135 566.842C462.235 569.054 466.475 576.315 464.927 583.59L458.622 613.267C456.871 621.497 448.479 626.459 440.402 624.083C419.813 618.024 400.518 608.761 382.881 596.447C361.75 581.694 343.89 563.218 329.796 541.527C315.702 519.835 306.08 496.009 301.193 470.715C297.114 449.597 296.49 428.214 299.328 406.946C300.442 398.605 308.39 392.957 316.624 394.704L346.311 401.013C353.588 402.561 358.503 409.389 357.635 416.772Z" fill="#1E255E"/>
</g>
<path d="M97.7922 915.498C87.203 854.751 34.3998 809.798 -27.2787 809.026C-34.1038 808.94 -39.735 803.663 -40.2793 796.859L-42.5056 769.102C-43.1212 761.403 -37.0386 754.841 -29.3117 754.816C-9.6131 754.753 9.78526 757.847 28.5252 764.06C50.9768 771.503 71.526 783.077 89.6051 798.467C107.684 813.856 122.389 832.294 133.313 853.264C142.431 870.772 148.58 889.418 151.655 908.87C152.86 916.498 147.348 923.549 139.647 924.168L111.88 926.394C105.073 926.938 98.9616 922.219 97.7922 915.498Z" fill="#1F265E"/>
<g opacity="0.5">
<path d="M325.161 785.464C356.602 838.509 421.914 861.818 479.859 840.67C486.271 838.33 493.407 841.268 496.329 847.437L508.253 872.601C511.558 879.581 508.198 887.873 500.982 890.637C482.585 897.681 463.35 901.666 443.625 902.502C419.993 903.503 396.675 899.968 374.314 891.988C351.952 884.009 331.666 871.984 314.016 856.249C299.282 843.112 286.921 827.858 277.148 810.76C273.317 804.055 275.971 795.508 282.952 792.198L308.125 780.271C314.297 777.349 321.685 779.594 325.161 785.464Z" fill="#1F265E"/>
</g>
<path d="M1.69854 114.271C23.5111 112.175 74.4848 96.8719 92.6813 141.875C115.427 198.13 54.5385 212.106 72.0352 264.866C89.5319 317.627 44.7404 348.374 -6 312.385" stroke="white" stroke-opacity="0.3" stroke-width="0.927143" stroke-linecap="round" stroke-dasharray="9.27 9.27"/>
</g>
<defs>
<filter id="filter0_f" x="-158.198" y="131.224" width="396.955" height="384.268" filterUnits="userSpaceOnUse" color-interpolation-filters="sRGB">
<feFlood flood-opacity="0" result="BackgroundImageFix"/>
<feBlend mode="normal" in="SourceGraphic" in2="BackgroundImageFix" result="shape"/>
<feGaussianBlur stdDeviation="35" result="effect1_foregroundBlur"/>
</filter>
<filter id="filter1_f" x="183.117" y="319.196" width="392.431" height="378.836" filterUnits="userSpaceOnUse" color-interpolation-filters="sRGB">
<feFlood flood-opacity="0" result="BackgroundImageFix"/>
<feBlend mode="normal" in="SourceGraphic" in2="BackgroundImageFix" result="shape"/>
<feGaussianBlur stdDeviation="35" result="effect1_foregroundBlur"/>
</filter>
<clipPath id="clip0">
<rect width="414" height="896" fill="white"/>
</clipPath>
</defs>
</svg>
