<svg height="512pt" viewBox="0 0 512 512" width="512pt" xmlns="http://www.w3.org/2000/svg"><path d="m292 100c-66.269531 0-120 53.730469-120 120 0 19.691406 4.738281 38.28125 13.148438 54.671875l.011718.007813 148.539063 57.871093h.011719c45.710937-16.941406 78.289062-60.941406 78.289062-112.550781 0-66.269531-53.730469-120-120-120zm0 0" fill="#ffda2d"/><path d="m355 352c41.421875 0 75 33.578125 75 75s-33.578125 75-75 75h-285c-33.140625 0-60-26.859375-60-60s26.859375-60 60-60c0-33.140625 26.859375-60 60-60 3.410156 0 6.699219.460938 9.949219 1 17.019531-36.695312 53.675781-61 95.050781-61 53.765625 0 97.191406 40.425781 103.679688 91.898438 5.269531-1.167969 10.699218-1.898438 16.320312-1.898438zm0 0" fill="#fff5f5"/><path d="m70 512h285c46.867188 0 85-38.132812 85-85s-38.132812-85-85-85c-2.691406 0-5.398438.144531-8.15625.429688-.296875-1.367188-.628906-2.730469-.976562-4.085938 45.242187-20.566406 76.132812-66.117188 76.132812-118.34375 0-54.15625-33.296875-101.53125-82.101562-120.886719-5.136719-2.035156-10.945313.476563-12.984376 5.609375-2.035156 5.132813.476563 10.945313 5.609376 12.980469 42.207031 16.738281 69.476562 56.890625 69.476562 102.296875 0 42.539062-24.886719 81.320312-62.816406 99.378906-18.449219-40.699218-59.0625-67.378906-104.183594-67.378906-15.496094 0-30.867188 3.171875-45.023438 9.234375-5.296874-13.042969-7.976562-26.871094-7.976562-41.234375 0-45.40625 27.269531-85.558594 69.476562-102.296875 5.132813-2.035156 7.644532-7.847656 5.609376-12.980469-2.039063-5.132812-7.847657-7.644531-12.984376-5.609375-48.761718 19.335938-82.101562 66.675781-82.101562 120.886719 0 17.441406 3.554688 34.808594 10.308594 50.761719-15.800782 10.414062-29.003906 24.738281-38.09375 41.414062-1.367188-.109375-2.773438-.175781-4.214844-.175781-35.421875 0-64.78125 26.441406-69.375 60.625-34.183594 4.59375-60.625 33.953125-60.625 69.375 0 38.597656 31.402344 70 70 70zm0-120c5.523438 0 10-4.476562 10-10 0-27.570312 22.429688-50 50-50 2.578125 0 5.1875.347656 8.3125.863281 4.4375.738281 8.816406-1.578125 10.710938-5.65625 15.609374-33.660156 49.015624-55.207031 85.976562-55.207031 47.335938 0 87.746094 35.4375 93.757812 83.148438.351563 2.792968 1.863282 5.308593 4.164063 6.925781 2.300781 1.621093 5.179687 2.199219 7.925781 1.585937 5.039063-1.117187 9.667969-1.660156 14.152344-1.660156 35.839844 0 65 29.160156 65 65s-29.160156 65-65 65h-285c-27.570312 0-50-22.429688-50-50s22.429688-50 50-50zm0 0"/><path d="m193.339844 69.117188c2.746094 4.761718 8.855468 6.4375 13.660156 3.664062 4.78125-2.761719 6.421875-8.875 3.660156-13.660156l-15-25.988282c-2.757812-4.785156-8.875-6.425781-13.65625-3.664062-4.785156 2.761719-6.425781 8.875-3.664062 13.660156zm0 0"/><path d="m452.878906 138.660156 25.988282-15c4.785156-2.761718 6.425781-8.875 3.664062-13.660156-2.761719-4.78125-8.878906-6.425781-13.660156-3.660156l-25.988282 15c-4.785156 2.757812-6.425781 8.875-3.664062 13.65625 2.753906 4.769531 8.863281 6.433594 13.660156 3.664062zm0 0"/><path d="m105.132812 123.660156 25.988282 15c4.8125 2.777344 10.914062 1.09375 13.660156-3.664062 2.761719-4.78125 1.121094-10.898438-3.664062-13.65625l-25.988282-15c-4.785156-2.761719-10.898437-1.121094-13.660156 3.660156-2.761719 4.785156-1.121094 10.898438 3.664062 13.660156zm0 0"/><path d="m442.882812 318.660156 25.988282 15c4.761718 2.75 10.886718 1.144532 13.660156-3.664062 2.761719-4.78125 1.121094-10.898438-3.664062-13.65625l-25.988282-15c-4.789062-2.765625-10.902344-1.121094-13.660156 3.660156-2.761719 4.785156-1.121094 10.898438 3.664062 13.660156zm0 0"/><path d="m377 72.78125c4.765625 2.746094 10.886719 1.140625 13.660156-3.664062l15-25.988282c2.761719-4.785156 1.121094-10.898437-3.660156-13.660156-4.789062-2.761719-10.898438-1.121094-13.660156 3.664062l-15 25.988282c-2.761719 4.785156-1.121094 10.898437 3.660156 13.660156zm0 0"/><path d="m292 50c5.523438 0 10-4.476562 10-10v-30c0-5.523438-4.476562-10-10-10s-10 4.476562-10 10v30c0 5.523438 4.476562 10 10 10zm0 0"/><path d="m462 220c0 5.523438 4.476562 10 10 10h30c5.523438 0 10-4.476562 10-10s-4.476562-10-10-10h-30c-5.523438 0-10 4.476562-10 10zm0 0"/><path d="m82 230h30c5.523438 0 10-4.476562 10-10s-4.476562-10-10-10h-30c-5.523438 0-10 4.476562-10 10s4.476562 10 10 10zm0 0"/><path d="m302 100c0 5.523438-4.476562 10-10 10s-10-4.476562-10-10 4.476562-10 10-10 10 4.476562 10 10zm0 0"/></svg>