<svg height="512pt" viewBox="0 -16 512.00029 512" width="512pt" xmlns="http://www.w3.org/2000/svg"><path d="m462 250c-66.269531 0-120-53.730469-120-120 0-49.78125 30.320312-92.46875 73.488281-110.640625-16.75-5.949219-34.699219-9.359375-53.488281-9.359375-88.371094 0-160 71.628906-160 160 0 21.988281 4.441406 42.949219 12.460938 62.019531v.011719l87.539062 84.96875 86.398438 10.839844v-.007813c51-8.492187 91.03125-41.171875 113.601562-85.800781-13.289062 5.070312-24.929688 7.96875-40 7.96875zm0 0" fill="#ffda2d"/><path d="m430 395c0 41.421875-33.578125 75-75 75h-285c-33.140625 0-60-26.859375-60-60s26.859375-60 60-60c0-33.140625 26.859375-60 60-60 3.410156 0 6.699219.460938 9.949219 1 16.867187-36.359375 53.308593-61 95.050781-61 53.5 0 97.160156 40.160156 103.679688 91.898438 5.269531-1.167969 10.699218-1.898438 16.320312-1.898438 41.148438 0 75 33.320312 75 75zm0 0" fill="#fff5f5"/><path d="m230 470c0 5.523438-4.476562 10-10 10s-10-4.476562-10-10 4.476562-10 10-10 10 4.476562 10 10zm0 0"/><path d="m70 480h105c5.523438 0 10-4.476562 10-10s-4.476562-10-10-10h-105c-27.570312 0-50-22.429688-50-50s22.429688-50 50-50c5.523438 0 10-4.476562 10-10 0-27.570312 22.429688-50 50-50 2.578125 0 5.1875.347656 8.3125.863281 4.4375.738281 8.816406-1.574219 10.710938-5.652343 15.195312-32.761719 48.15625-55.210938 85.976562-55.210938 47.476562 0 87.785156 35.746094 93.757812 83.148438.351563 2.792968 1.863282 5.308593 4.164063 6.925781 2.300781 1.621093 5.179687 2.199219 7.925781 1.589843 5.039063-1.121093 9.667969-1.664062 14.152344-1.664062 35.523438 0 65 28.574219 65 65 0 35.839844-29.160156 65-65 65h-90c-5.523438 0-10 4.476562-10 10s4.476562 10 10 10h90c46.867188 0 85-38.128906 85-85 0-24.371094-10.179688-46.882812-27.554688-62.71875 42.066407-13.386719 77.230469-43.71875 98.480469-85.738281 1.863281-3.6875 1.269531-8.140625-1.496093-11.207031-2.769532-3.070313-7.136719-4.121094-10.992188-2.648438-11.507812 4.386719-22.109375 7.3125-36.4375 7.3125-60.652344 0-110-49.347656-110-110 0-44.386719 26.445312-84.199219 67.367188-101.421875 3.808593-1.601563 6.234374-5.378906 6.117187-9.503906s-2.757813-7.753907-6.644531-9.136719c-18.566406-6.59375-37.6875-9.9375-56.839844-9.9375-93.738281 0-170 76.261719-170 170 0 18.949219 3.078125 37.4375 9.144531 55.125-28.386719 8.828125-52.554687 28.636719-66.933593 55.050781-1.367188-.109375-2.769532-.175781-4.210938-.175781-35.421875 0-64.78125 26.441406-69.375 60.625-34.183594 4.59375-60.625 33.957031-60.625 69.375 0 38.597656 31.402344 70 70 70zm292-460c8.972656 0 17.945312.835938 26.847656 2.496094-35.175781 23.890625-56.847656 63.820312-56.847656 107.503906 0 71.683594 58.316406 130 130 130 6.398438 0 12.378906-.460938 18.394531-1.476562-22.15625 31.0625-54.109375 52.011718-90.636719 58.902343-10.9375-4.921875-22.613281-7.425781-34.757812-7.425781-2.6875 0-5.394531.144531-8.152344.429688-11.398437-52.21875-57.785156-90.429688-111.847656-90.429688-4.730469 0-9.46875.292969-14.15625.875-5.871094-16.273438-8.84375-33.347656-8.84375-50.875 0-82.710938 67.289062-150 150-150zm0 0"/></svg>