<svg width="24" height="25" viewBox="0 0 24 25" fill="none" xmlns="http://www.w3.org/2000/svg">
<g clip-path="url(#clip0)" filter="url(#filter0_di)">
<path d="M12.2442 3.25593L7.6548 7.84529C6.74722 8.75296 6.12917 9.90937 5.87881 11.1683C5.62844 12.4272 5.75701 13.7321 6.24824 14.9179C6.73947 16.1038 7.57131 17.1174 8.63857 17.8305C9.70583 18.5436 10.9606 18.9242 12.2442 18.9242C13.5277 18.9242 14.7825 18.5436 15.8497 17.8305C16.917 17.1174 17.7488 16.1038 18.2401 14.9179C18.7313 13.7321 18.8599 12.4272 18.6095 11.1683C18.3591 9.90937 17.7411 8.75296 16.8335 7.84529L12.2442 3.25593ZM12.2442 0.633972L18.1445 6.53431C19.3114 7.70128 20.1062 9.18809 20.4281 10.8067C20.7501 12.4254 20.5848 14.1031 19.9533 15.6278C19.3217 17.1525 18.2522 18.4557 16.88 19.3726C15.5078 20.2895 13.8945 20.7789 12.2442 20.7789C10.5938 20.7789 8.98054 20.2895 7.60833 19.3726C6.23612 18.4557 5.16661 17.1525 4.53505 15.6278C3.90349 14.1031 3.73824 12.4254 4.06019 10.8067C4.38215 9.18809 5.17686 7.70128 6.34382 6.53431L12.2442 0.633972Z" fill="white"/>
</g>
<defs>
<filter id="filter0_di" x="-1.88156" y="0.381348" width="25.2514" height="26.2514" filterUnits="userSpaceOnUse" color-interpolation-filters="sRGB">
<feFlood flood-opacity="0" result="BackgroundImageFix"/>
<feColorMatrix in="SourceAlpha" type="matrix" values="0 0 0 0 0 0 0 0 0 0 0 0 0 0 0 0 0 0 127 0"/>
<feOffset dx="-2" dy="3"/>
<feGaussianBlur stdDeviation="0.5"/>
<feColorMatrix type="matrix" values="0 0 0 0 0 0 0 0 0 0 0 0 0 0 0 0 0 0 0.1 0"/>
<feBlend mode="normal" in2="BackgroundImageFix" result="effect1_dropShadow"/>
<feBlend mode="normal" in="SourceGraphic" in2="effect1_dropShadow" result="shape"/>
<feColorMatrix in="SourceAlpha" type="matrix" values="0 0 0 0 0 0 0 0 0 0 0 0 0 0 0 0 0 0 127 0" result="hardAlpha"/>
<feOffset dx="-1" dy="1"/>
<feGaussianBlur stdDeviation="1"/>
<feComposite in2="hardAlpha" operator="arithmetic" k2="-1" k3="1"/>
<feColorMatrix type="matrix" values="0 0 0 0 1 0 0 0 0 1 0 0 0 0 1 0 0 0 0.25 0"/>
<feBlend mode="normal" in2="shape" result="effect2_innerShadow"/>
</filter>
<clipPath id="clip0">
<rect width="22.2514" height="22.2514" fill="white" transform="translate(1.11844 0.381348)"/>
</clipPath>
</defs>
</svg>
