<svg height="512pt" viewBox="0 0 512 512" width="512pt" xmlns="http://www.w3.org/2000/svg"><path d="m235 10c-42.21875 0-78.378906 25.070312-95.050781 61-3.25-.539062-6.539063-1-9.949219-1-33.140625 0-60 26.859375-60 60-33.140625 0-60 26.859375-60 60s26.859375 60 60 60h21.238281l247.960938-142.929688c-4.160157-54.210937-48.929688-97.070312-104.199219-97.070312zm0 0" fill="#efe2dd"/><g fill="#76e2f8"><path d="m429.328125 412.011719c1.703125 2.9375 2.671875 6.347656 2.671875 9.988281 0 11.050781-8.949219 20-20 20s-20-8.949219-20-20c0-3.640625.96875-7.050781 2.671875-9.988281l17.328125-30.011719zm0 0"/><path d="m369.328125 472.011719c1.703125 2.9375 2.671875 6.347656 2.671875 9.988281 0 11.050781-8.949219 20-20 20s-20-8.949219-20-20c0-3.640625.96875-7.050781 2.671875-9.988281l17.328125-30.011719zm0 0"/><path d="m309.328125 412.011719c1.703125 2.9375 2.671875 6.347656 2.671875 9.988281 0 11.050781-8.949219 20-20 20s-20-8.949219-20-20c0-3.640625.96875-7.050781 2.671875-9.988281l17.328125-30.011719zm0 0"/><path d="m249.328125 472.011719c1.703125 2.9375 2.671875 6.347656 2.671875 9.988281 0 11.050781-8.949219 20-20 20s-20-8.949219-20-20c0-3.640625.96875-7.050781 2.671875-9.988281l17.328125-30.011719zm0 0"/><path d="m189.328125 412.011719c1.703125 2.9375 2.671875 6.347656 2.671875 9.988281 0 11.050781-8.949219 20-20 20s-20-8.949219-20-20c0-3.640625.96875-7.050781 2.671875-9.988281l17.328125-30.011719zm0 0"/></g><path d="m427 192c41.421875 0 75 33.578125 75 75s-33.578125 75-75 75h-285c-33.140625 0-60-26.859375-60-60 0-33.199219 26.929688-60 60-60 0-33.140625 26.859375-60 60-60 3.410156 0 6.699219.460938 9.949219 1 16.671875-35.929688 52.832031-61 95.050781-61 11.25 0 22.070312 1.78125 32.199219 5.070312 38.019531 12.339844 66.332031 45.96875 71.480469 86.828126 5.269531-1.167969 10.699218-1.898438 16.320312-1.898438zm0 0" fill="#fff5f5"/><path d="m180.660156 377c-1.785156-3.09375-5.085937-5-8.660156-5s-6.875 1.90625-8.660156 5l-17.328125 30.003906c-2.625 4.542969-4.011719 9.726563-4.011719 14.996094 0 16.542969 13.457031 30 30 30s30-13.457031 30-30c0-5.269531-1.386719-10.453125-4.011719-14.992188zm-8.660156 55c-5.515625 0-10-4.484375-10-10 0-1.785156.445312-3.460938 1.328125-4.988281l8.671875-15.015625 8.671875 15.019531c.882813 1.523437 1.328125 3.203125 1.328125 4.984375 0 5.515625-4.484375 10-10 10zm0 0"/><path d="m262 422c0 16.542969 13.457031 30 30 30s30-13.457031 30-30c0-5.269531-1.386719-10.453125-4.011719-14.992188l-17.328125-30.007812c-1.785156-3.09375-5.085937-5-8.660156-5s-6.875 1.90625-8.660156 5l-17.328125 30.003906c-2.625 4.542969-4.011719 9.726563-4.011719 14.996094zm21.328125-4.988281 8.671875-15.015625 8.671875 15.019531c.882813 1.523437 1.328125 3.203125 1.328125 4.984375 0 5.515625-4.484375 10-10 10s-10-4.484375-10-10c0-1.785156.445312-3.460938 1.328125-4.988281zm0 0"/><path d="m412 452c16.542969 0 30-13.457031 30-30 0-5.269531-1.386719-10.453125-4.011719-14.992188l-17.328125-30.007812c-1.785156-3.09375-5.085937-5-8.660156-5s-6.875 1.90625-8.660156 5l-17.328125 30.003906c-2.625 4.542969-4.011719 9.726563-4.011719 14.996094 0 16.542969 13.457031 30 30 30zm-8.671875-34.988281 8.671875-15.015625 8.671875 15.019531c.882813 1.523437 1.328125 3.203125 1.328125 4.984375 0 5.515625-4.484375 10-10 10s-10-4.484375-10-10c0-1.785156.445312-3.460938 1.328125-4.988281zm0 0"/><path d="m352 512c16.542969 0 30-13.457031 30-30 0-5.269531-1.386719-10.453125-4.011719-14.992188l-17.328125-30.007812c-1.785156-3.09375-5.085937-5-8.660156-5s-6.875 1.90625-8.660156 5l-17.328125 30.003906c-2.625 4.542969-4.011719 9.726563-4.011719 14.996094 0 16.542969 13.457031 30 30 30zm-8.671875-34.988281 8.671875-15.015625 8.671875 15.019531c.882813 1.523437 1.328125 3.203125 1.328125 4.984375 0 5.515625-4.484375 10-10 10s-10-4.484375-10-10c0-1.785156.445312-3.460938 1.328125-4.988281zm0 0"/><path d="m262 482c0-5.269531-1.386719-10.453125-4.011719-14.992188l-17.328125-30.007812c-1.785156-3.09375-5.085937-5-8.660156-5s-6.875 1.90625-8.660156 5l-17.328125 30.003906c-2.625 4.542969-4.011719 9.726563-4.011719 14.996094 0 16.542969 13.457031 30 30 30s30-13.457031 30-30zm-30 10c-5.515625 0-10-4.484375-10-10 0-1.785156.445312-3.460938 1.328125-4.988281l8.671875-15.015625 8.671875 15.019531c.882813 1.523437 1.328125 3.203125 1.328125 4.984375 0 5.515625-4.484375 10-10 10zm0 0"/><path d="m302 342c0 5.523438-4.476562 10-10 10s-10-4.476562-10-10 4.476562-10 10-10 10 4.476562 10 10zm0 0"/><path d="m427 182c-2.691406 0-5.398438.144531-8.15625.429688-8.210938-37.460938-34.742188-68.734376-70.363281-82.648438-7.558594-56.601562-55.5-99.78125-113.480469-99.78125-41.960938 0-80.75 23.390625-100.789062 60.175781-1.363282-.109375-2.769532-.175781-4.210938-.175781-35.421875 0-64.78125 26.441406-69.375 60.625-34.183594 4.59375-60.625 33.953125-60.625 69.375 0 38.597656 31.402344 69.988281 70 69.988281h5.539062c-2.332031 7.050781-3.539062 14.480469-3.539062 22.011719 0 38.597656 31.402344 70 70 70h105c5.523438 0 10-4.476562 10-10s-4.476562-10-10-10h-105c-27.570312 0-50-22.429688-50-50 0-27.304688 22.027344-50 50-50 5.523438 0 10-4.476562 10-10 0-27.570312 22.429688-50 50-50 2.578125 0 5.1875.347656 8.3125.863281 4.4375.738281 8.816406-1.578125 10.707031-5.652343 15.5625-33.539063 49.308594-55.210938 85.980469-55.210938 48.46875 0 87.882812 36.535156 93.757812 83.148438.351563 2.792968 1.863282 5.308593 4.164063 6.925781 2.300781 1.621093 5.179687 2.199219 7.925781 1.585937 5.039063-1.117187 9.667969-1.660156 14.152344-1.660156 35.839844 0 65 29.160156 65 65s-29.160156 65-65 65h-90c-5.523438 0-10 4.476562-10 10s4.476562 10 10 10h90c46.867188 0 85-38.132812 85-85s-38.132812-85-85-85zm-220.789062-29.824219c-1.363282-.109375-2.769532-.175781-4.210938-.175781-35.417969 0-64.777344 26.441406-69.375 60.621094-18.574219 2.472656-35.28125 12.265625-46.597656 27.378906h-16.027344c-27.570312 0-50-22.429688-50-50s22.429688-50 50-50c5.523438 0 10-4.476562 10-10 0-27.570312 22.429688-50 50-50 2.578125 0 5.1875.347656 8.3125.863281 4.4375.738281 8.816406-1.574219 10.707031-5.652343 15.5625-33.539063 49.308594-55.210938 85.980469-55.210938 44.28125 0 82.304688 31.4375 92.074219 73.78125-6.597657-1.171875-13.304688-1.78125-20.074219-1.78125-41.960938 0-80.75 23.390625-100.789062 60.175781zm0 0"/></svg>