<svg height="512pt" viewBox="0 -26 512 512" width="512pt" xmlns="http://www.w3.org/2000/svg"><path d="m235 10c-42.21875 0-78.378906 25.070312-95.050781 61-3.25-.539062-6.539063-1-9.949219-1-33.140625 0-60 26.859375-60 60-33.140625 0-60 26.859375-60 60s26.859375 60 60 60h15.410156l252.078125-155.46875v-.011719c-9.539062-48.121093-51.558593-84.519531-102.488281-84.519531zm0 0" fill="#efe2dd"/><path d="m427 180c-5.621094 0-11.050781.730469-16.320312 1.898438-6.542969-51.878907-50.316407-91.898438-103.679688-91.898438-42.21875 0-78.378906 25.070312-95.050781 61-3.25-.539062-6.539063-1-9.949219-1-33.140625 0-60 26.859375-60 60-33.132812 0-60 26.839844-60 60 0 33.140625 26.859375 60 60 60h285c41.421875 0 75-33.578125 75-75s-33.578125-75-75-75zm0 0" fill="#fff5f5"/><path d="m352 300c-11.429688 19.050781-78.867188 131.445312-90 150v-90h-90c11.429688-19.050781 78.867188-131.445312 90-150v90zm0 0" fill="#ffda2d"/><path d="m427 170c-2.691406 0-5.398438.144531-8.152344.429688-8.398437-38.457032-35.914062-70.160157-72.839844-83.574219-7.96875-31.800781-28.832031-58.488281-57.949218-73.804688-4.886719-2.570312-10.933594-.695312-13.503906 4.195313-2.570313 4.886718-.695313 10.933594 4.191406 13.503906 20.746094 10.914062 36.425781 28.828125 44.570312 50.414062-5.378906-.769531-10.828125-1.164062-16.316406-1.164062-41.960938 0-80.75 23.390625-100.789062 60.175781-1.363282-.109375-2.769532-.175781-4.210938-.175781-35.421875 0-64.785156 26.445312-69.375 60.632812-23.367188 3.160157-43.742188 17.992188-53.886719 39.367188h-8.738281c-27.570312 0-50-22.429688-50-50s22.429688-50 50-50c5.523438 0 10-4.476562 10-10 0-27.570312 22.429688-50 50-50 2.578125 0 5.1875.347656 8.3125.863281 4.4375.738281 8.816406-1.578125 10.707031-5.652343 10.222657-22.03125 28.125-39.171876 50.414063-48.269532 5.113281-2.085937 7.570312-7.921875 5.480468-13.035156-2.085937-5.117188-7.925781-7.566406-13.035156-5.480469-24.703125 10.082031-44.949218 28.308594-57.675781 51.75-1.359375-.113281-2.761719-.175781-4.203125-.175781-35.421875 0-64.78125 26.441406-69.375 60.625-34.183594 4.59375-60.625 33.953125-60.625 69.375 0 38.597656 31.402344 69.988281 70 69.988281h2.722656c-.46875 3.296875-.722656 6.644531-.722656 10.011719 0 38.597656 31.402344 70 70 70h30.339844l-8.914063 14.855469c-1.855469 3.089843-1.902343 6.9375-.128906 10.070312 1.777344 3.136719 5.101563 5.074219 8.703125 5.074219h80v80c0 4.496094 3 8.4375 7.332031 9.636719.886719.246093 1.78125.363281 2.667969.363281 3.449219 0 6.734375-1.789062 8.574219-4.855469l69.085937-115.144531h87.339844c46.867188 0 85-38.132812 85-85s-38.132812-85-85-85zm-165 180h-72.339844l62.339844-103.898438v53.898438c0 5.523438 4.476562 10 10 10h72.339844l-62.339844 103.894531v-53.894531c0-5.523438-4.476562-10-10-10zm165-30h-75.339844l8.914063-14.855469c1.855469-3.089843 1.902343-6.9375.128906-10.070312-1.777344-3.136719-5.101563-5.074219-8.703125-5.074219h-80v-80c0-4.496094-3-8.4375-7.332031-9.636719-4.328125-1.199219-8.929688.636719-11.242188 4.492188l-69.085937 115.144531h-42.339844c-27.570312 0-50-22.429688-50-50 0-5.726562.957031-11.332031 2.839844-16.667969 7.046875-19.9375 26-33.332031 47.160156-33.332031 5.523438 0 10-4.476562 10-10 0-27.570312 22.429688-50 50-50 2.578125 0 5.1875.347656 8.3125.863281 4.4375.738281 8.816406-1.578125 10.707031-5.652343 15.5625-33.539063 49.308594-55.210938 85.980469-55.210938 48.660156 0 87.886719 36.578125 93.757812 83.152344.351563 2.789062 1.863282 5.304687 4.167969 6.921875 2.300781 1.621093 5.179688 2.199219 7.921875 1.585937 5.039063-1.117187 9.667969-1.660156 14.152344-1.660156 35.839844 0 65 29.160156 65 65s-29.160156 65-65 65zm0 0"/><path d="m250 10c0 5.523438-4.476562 10-10 10s-10-4.476562-10-10 4.476562-10 10-10 10 4.476562 10 10zm0 0"/></svg>