<svg width="25" height="25" viewBox="0 0 25 25" fill="none" xmlns="http://www.w3.org/2000/svg">
<g filter="url(#filter0_di)">
<path d="M11.8534 16.3483H5.82701V14.494H11.8534C12.4456 14.4942 13.0265 14.6565 13.5331 14.9632C14.0397 15.27 14.4526 15.7095 14.7273 16.2342C15.0019 16.7589 15.1277 17.3487 15.0911 17.9398C15.0544 18.5308 14.8567 19.1006 14.5194 19.5874C14.1821 20.0741 13.718 20.4593 13.1774 20.7011C12.6368 20.9429 12.0404 21.0322 11.4527 20.9593C10.865 20.8864 10.3084 20.654 9.84334 20.2874C9.37826 19.9207 9.02238 19.4338 8.81427 18.8794L10.5508 18.2276C10.64 18.4652 10.7925 18.6739 10.9918 18.8311C11.1911 18.9882 11.4296 19.0878 11.6815 19.1191C11.9333 19.1504 12.189 19.1121 12.4207 19.0085C12.6523 18.9049 12.8513 18.7398 12.9958 18.5312C13.1404 18.3226 13.2252 18.0785 13.2409 17.8251C13.2566 17.5718 13.2027 17.319 13.085 17.0942C12.9674 16.8693 12.7904 16.6809 12.5733 16.5494C12.3562 16.4179 12.1072 16.3484 11.8534 16.3483ZM6.75415 10.7854H19.2706C19.8628 10.7856 20.4437 10.9479 20.9502 11.2546C21.4568 11.5614 21.8698 12.0009 22.1444 12.5256C22.419 13.0503 22.5448 13.6401 22.5082 14.2312C22.4716 14.8223 22.2739 15.392 21.9365 15.8788C21.5992 16.3655 21.1351 16.7507 20.5945 16.9925C20.054 17.2344 19.4575 17.3236 18.8698 17.2507C18.2821 17.1778 17.7256 16.9454 17.2605 16.5788C16.7954 16.2122 16.4395 15.7252 16.2314 15.1708L17.9679 14.519C18.0571 14.7566 18.2096 14.9653 18.4089 15.1225C18.6082 15.2796 18.8467 15.3792 19.0986 15.4105C19.3505 15.4418 19.6061 15.4036 19.8378 15.2999C20.0695 15.1963 20.2684 15.0313 20.413 14.8227C20.5576 14.6141 20.6423 14.3699 20.658 14.1166C20.6738 13.8632 20.6199 13.6105 20.5022 13.3856C20.3845 13.1607 20.2075 12.9723 19.9904 12.8408C19.7733 12.7094 19.5244 12.6398 19.2706 12.6397H6.75415C6.01647 12.6397 5.30901 12.3467 4.78739 11.825C4.26577 11.3034 3.97272 10.596 3.97272 9.85827C3.97272 9.12059 4.26577 8.41313 4.78739 7.89151C5.30901 7.36989 6.01647 7.07685 6.75415 7.07685H14.6349C14.8887 7.07674 15.1376 7.00718 15.3547 6.8757C15.5718 6.74422 15.7488 6.55584 15.8665 6.33097C15.9842 6.10609 16.0381 5.8533 16.0223 5.59998C16.0066 5.34666 15.9219 5.10248 15.7773 4.89388C15.6327 4.68528 15.4338 4.52023 15.2021 4.41661C14.9704 4.31298 14.7148 4.27474 14.4629 4.30602C14.211 4.3373 13.9725 4.43691 13.7732 4.59406C13.5739 4.75121 13.4214 4.9599 13.3322 5.19753L11.5957 4.54667C11.8631 3.83537 12.3717 3.24046 13.0327 2.86559C13.6937 2.49072 14.4653 2.35965 15.2131 2.49523C15.9608 2.63081 16.6372 3.02444 17.1246 3.60753C17.6119 4.19062 17.8792 4.92621 17.8799 5.68613C17.8799 6.54676 17.538 7.37214 16.9294 7.98069C16.3209 8.58925 15.4955 8.93113 14.6349 8.93113H6.75415C6.50826 8.93113 6.27244 9.02881 6.09856 9.20269C5.92469 9.37656 5.82701 9.61238 5.82701 9.85827C5.82701 10.1042 5.92469 10.34 6.09856 10.5139C6.27244 10.6877 6.50826 10.7854 6.75415 10.7854Z" fill="white"/>
</g>
<defs>
<filter id="filter0_di" x="-0.881561" y="0.587036" width="25.2514" height="26.2514" filterUnits="userSpaceOnUse" color-interpolation-filters="sRGB">
<feFlood flood-opacity="0" result="BackgroundImageFix"/>
<feColorMatrix in="SourceAlpha" type="matrix" values="0 0 0 0 0 0 0 0 0 0 0 0 0 0 0 0 0 0 127 0"/>
<feOffset dx="-2" dy="3"/>
<feGaussianBlur stdDeviation="0.5"/>
<feColorMatrix type="matrix" values="0 0 0 0 0 0 0 0 0 0 0 0 0 0 0 0 0 0 0.1 0"/>
<feBlend mode="normal" in2="BackgroundImageFix" result="effect1_dropShadow"/>
<feBlend mode="normal" in="SourceGraphic" in2="effect1_dropShadow" result="shape"/>
<feColorMatrix in="SourceAlpha" type="matrix" values="0 0 0 0 0 0 0 0 0 0 0 0 0 0 0 0 0 0 127 0" result="hardAlpha"/>
<feOffset dx="-1" dy="1"/>
<feGaussianBlur stdDeviation="1"/>
<feComposite in2="hardAlpha" operator="arithmetic" k2="-1" k3="1"/>
<feColorMatrix type="matrix" values="0 0 0 0 1 0 0 0 0 1 0 0 0 0 1 0 0 0 0.25 0"/>
<feBlend mode="normal" in2="shape" result="effect2_innerShadow"/>
</filter>
</defs>
</svg>
